<?xml version="1.0" encoding="UTF-8"?>
<!DOCTYPE svg PUBLIC "-//W3C//DTD SVG 1.1//EN" "http://www.w3.org/Graphics/SVG/1.1/DTD/svg11.dtd">
<svg xmlns="http://www.w3.org/2000/svg" version="1.1" width="569px" height="172px" style="shape-rendering:geometricPrecision; text-rendering:geometricPrecision; image-rendering:optimizeQuality; fill-rule:evenodd; clip-rule:evenodd" xmlns:xlink="http://www.w3.org/1999/xlink">
<g><path style="opacity:1" fill="#010101" d="M 265.5,4.5 C 268.753,11.3479 272.753,17.6813 277.5,23.5C 278.475,25.7952 279.808,27.7952 281.5,29.5C 281.5,29.8333 281.5,30.1667 281.5,30.5C 279.527,39.7755 278.86,49.4422 279.5,59.5C 280.5,59.5 281.5,59.5 282.5,59.5C 283.329,51.3434 283.829,43.0101 284,34.5C 286.639,37.4495 288.473,40.7829 289.5,44.5C 286.719,54.3727 290.386,59.3727 300.5,59.5C 302.354,63.2208 304.687,66.5541 307.5,69.5C 309.446,73.4394 311.779,77.106 314.5,80.5C 317.78,86.4409 321.447,92.1076 325.5,97.5C 329.748,104.931 334.248,112.264 339,119.5C 340.461,121.468 342.295,122.802 344.5,123.5C 339.5,123.768 334.834,122.768 330.5,120.5C 327.066,125.234 328.066,128.401 333.5,130C 338.823,130.499 344.156,130.666 349.5,130.5C 349.082,131.222 348.416,131.722 347.5,132C 348.399,133.652 349.399,135.152 350.5,136.5C 351.475,138.795 352.808,140.795 354.5,142.5C 357.847,149.186 362.18,155.186 367.5,160.5C 370.039,159.885 372.539,159.218 375,158.5C 379.624,159.542 384.29,159.542 389,158.5C 390.888,160.922 392.888,160.922 395,158.5C 400.588,160.577 406.254,160.577 412,158.5C 414.978,158.328 417.978,158.995 421,160.5C 422.667,159.833 424.333,159.167 426,158.5C 427.482,160.781 429.149,160.781 431,158.5C 438.522,159.405 446.189,159.405 454,158.5C 456,159.167 458,159.833 460,160.5C 460.667,159.833 461.333,159.167 462,158.5C 483.602,159.568 505.602,159.568 528,158.5C 529.925,160.973 531.758,160.973 533.5,158.5C 542.523,158.949 551.356,159.283 560,159.5C 561.67,154.408 562.503,154.408 562.5,159.5C 560.402,163.434 557.402,166.6 553.5,169C 374.167,169.667 194.833,169.667 15.5,169C 10.9499,166.117 7.44995,162.284 5,157.5C 4.33333,110.5 4.33333,63.5 5,16.5C 7.44995,11.7163 10.9499,7.883 15.5,5C 98.8327,4.5 182.166,4.33334 265.5,4.5 Z"/></g>
<g><path style="opacity:1" fill="#8d8e8d" d="M 265.5,4.5 C 361.501,4.33334 457.501,4.5 553.5,5C 558.127,7.78835 561.461,11.6217 563.5,16.5C 563.66,18.1992 563.494,19.8659 563,21.5C 562.667,20.5 562.333,19.5 562,18.5C 467.808,18.5707 373.475,18.5707 279,18.5C 275.942,19.3245 275.776,20.6578 278.5,22.5C 278.376,23.1067 278.043,23.44 277.5,23.5C 272.753,17.6813 268.753,11.3479 265.5,4.5 Z"/></g>
<g><path style="opacity:1" fill="#868686" d="M 563.5,16.5 C 564.482,19.9619 564.815,23.6286 564.5,27.5C 472.243,27.0393 378.576,26.7059 283.5,26.5C 282.833,26.8333 282.167,27.1667 281.5,27.5C 282.55,28.4288 282.55,29.0954 281.5,29.5C 279.808,27.7952 278.475,25.7952 277.5,23.5C 278.043,23.44 278.376,23.1067 278.5,22.5C 275.776,20.6578 275.942,19.3245 279,18.5C 373.475,18.5707 467.808,18.5707 562,18.5C 562.333,19.5 562.667,20.5 563,21.5C 563.494,19.8659 563.66,18.1992 563.5,16.5 Z"/></g>
<g><path style="opacity:1" fill="#7d7d7d" d="M 564.5,27.5 C 564.5,29.5 564.5,31.5 564.5,33.5C 562.648,34.0889 560.815,34.7556 559,35.5C 520.642,34.5234 481.809,34.1901 442.5,34.5C 442.657,33.1266 442.49,31.7932 442,30.5C 441.821,34.0252 441.321,37.3586 440.5,40.5C 440.5,37.1667 440.5,33.8333 440.5,30.5C 439.5,30.5 438.5,30.5 437.5,30.5C 437.5,40.1667 437.5,49.8333 437.5,59.5C 436.673,54.0149 436.173,48.3482 436,42.5C 435.506,44.1341 435.34,45.8008 435.5,47.5C 430.632,49.6453 428.632,47.9787 429.5,42.5C 430.833,42.5 432.167,42.5 433.5,42.5C 433.5,41.5 433.5,40.5 433.5,39.5C 431.833,39.5 430.167,39.5 428.5,39.5C 428.5,38.1667 428.5,36.8333 428.5,35.5C 427.5,35.5 426.5,35.5 425.5,35.5C 426.21,38.8595 424.876,40.6929 421.5,41C 422.056,41.3826 422.389,41.8826 422.5,42.5C 422.062,42.4346 421.728,42.6012 421.5,43C 423.767,44.0812 423.934,45.5812 422,47.5C 421.107,48.0814 420.107,48.4148 419,48.5C 416.626,48.0187 414.126,47.852 411.5,48C 410.08,46.5084 408.746,45.0084 407.5,43.5C 403.412,38.8083 399.079,38.475 394.5,42.5C 393.614,41.675 393.281,40.675 393.5,39.5C 391.821,39.2852 390.821,39.9519 390.5,41.5C 389.834,45.3525 389.167,49.3525 388.5,53.5C 387.682,50.8929 387.182,48.2263 387,45.5C 386.817,48.3647 386.317,51.0314 385.5,53.5C 387.342,42.8434 383.009,38.3434 372.5,40C 368.012,42.9781 366.345,47.1448 367.5,52.5C 366.566,51.4324 366.232,50.099 366.5,48.5C 362.517,48.1823 358.851,47.8489 355.5,47.5C 354.692,45.5767 354.192,43.5767 354,41.5C 353.828,47.6807 353.328,53.6807 352.5,59.5C 352.5,49.8333 352.5,40.1667 352.5,30.5C 351.5,30.5 350.5,30.5 349.5,30.5C 349.823,34.226 349.489,37.8927 348.5,41.5C 344.127,38.5681 340.127,38.9015 336.5,42.5C 333.341,41.6677 330.007,41.6677 326.5,42.5C 323.408,39.6451 319.741,38.8118 315.5,40C 315.043,40.414 314.709,40.914 314.5,41.5C 317.475,41.0661 320.475,41.5661 323.5,43C 324.38,44.3561 324.714,45.8561 324.5,47.5C 319.961,46.9569 316.127,48.2902 313,51.5C 312.51,52.7932 312.343,54.1266 312.5,55.5C 310.833,54.1667 309.167,52.8333 307.5,51.5C 307.69,42.5225 303.357,38.6892 294.5,40C 292.313,41.025 290.646,42.525 289.5,44.5C 288.473,40.7829 286.639,37.4495 284,34.5C 283.829,43.0101 283.329,51.3434 282.5,59.5C 282.827,49.6522 282.494,39.9856 281.5,30.5C 281.5,30.1667 281.5,29.8333 281.5,29.5C 282.55,29.0954 282.55,28.4288 281.5,27.5C 282.167,27.1667 282.833,26.8333 283.5,26.5C 378.576,26.7059 472.243,27.0393 564.5,27.5 Z"/></g>
<g><path style="opacity:1" fill="#e5e5e6" d="M 281.5,30.5 C 282.494,39.9856 282.827,49.6522 282.5,59.5C 281.5,59.5 280.5,59.5 279.5,59.5C 278.86,49.4422 279.527,39.7755 281.5,30.5 Z"/></g>
<g><path style="opacity:1" fill="#f7f7f7" d="M 98.5,54.5 C 96.6565,52.7211 95.9898,50.3878 96.5,47.5C 99.6004,38.3992 105.934,33.3992 115.5,32.5C 115.08,44.0515 109.413,51.3849 98.5,54.5 Z"/></g>
<g><path style="opacity:1" fill="#e5e5e5" d="M 180.5,31.5 C 199.851,30.0606 205.851,38.2273 198.5,56C 192.529,58.9846 186.196,60.1513 179.5,59.5C 179.195,50.0833 179.528,40.75 180.5,31.5 Z"/></g>
<g><path style="opacity:0.999" fill="#777777" d="M 564.5,33.5 C 564.5,38.5 564.5,43.5 564.5,48.5C 538.152,48.4904 511.652,48.4904 485,48.5C 483.237,48.0245 481.57,47.3578 480,46.5C 479.921,48.7364 479.421,50.0697 478.5,50.5C 478.862,41.0365 474.529,37.8698 465.5,41C 463.531,42.4998 462.198,44.3331 461.5,46.5C 461.141,44.1688 460.474,44.3355 459.5,47C 458.234,47.3095 457.067,47.8095 456,48.5C 455.667,47.1667 455.333,45.8333 455,44.5C 454.826,49.6835 454.326,54.6835 453.5,59.5C 453.666,53.8236 453.499,48.1569 453,42.5C 449,38.5 445,38.5 441,42.5C 440.536,41.9056 440.369,41.2389 440.5,40.5C 441.321,37.3586 441.821,34.0252 442,30.5C 442.49,31.7932 442.657,33.1266 442.5,34.5C 481.809,34.1901 520.642,34.5234 559,35.5C 560.815,34.7556 562.648,34.0889 564.5,33.5 Z"/></g>
<g><path style="opacity:1" fill="#060606" d="M 190.5,56.5 C 188.167,56.5 185.833,56.5 183.5,56.5C 183.5,49.1667 183.5,41.8333 183.5,34.5C 195.297,33.1395 200.131,38.4728 198,50.5C 196.488,53.8566 193.988,55.8566 190.5,56.5 Z"/></g>
<g><path style="opacity:1" fill="#434343" d="M 183.5,34.5 C 183.5,41.8333 183.5,49.1667 183.5,56.5C 185.833,56.5 188.167,56.5 190.5,56.5C 188.052,57.4731 185.385,57.8064 182.5,57.5C 182.175,49.6484 182.508,41.9818 183.5,34.5 Z"/></g>
<g><path style="opacity:1" fill="#e0e0e0" d="M 429.5,42.5 C 428.352,46.9811 428.185,51.6478 429,56.5C 430.205,57.0712 431.372,57.7379 432.5,58.5C 429.411,59.9696 426.911,59.303 425,56.5C 425.114,51.3941 424.28,46.7274 422.5,42.5C 422.389,41.8826 422.056,41.3826 421.5,41C 424.876,40.6929 426.21,38.8595 425.5,35.5C 426.5,35.5 427.5,35.5 428.5,35.5C 428.5,36.8333 428.5,38.1667 428.5,39.5C 430.167,39.5 431.833,39.5 433.5,39.5C 433.5,40.5 433.5,41.5 433.5,42.5C 432.167,42.5 430.833,42.5 429.5,42.5 Z"/></g>
<g><path style="opacity:1" fill="#ececec" d="M 478.5,50.5 C 473.833,50.5 469.167,50.5 464.5,50.5C 464.472,52.5824 465.139,54.4157 466.5,56C 470.046,57.1737 473.713,57.8404 477.5,58C 466.376,62.269 461.042,58.4357 461.5,46.5C 462.198,44.3331 463.531,42.4998 465.5,41C 474.529,37.8698 478.862,41.0365 478.5,50.5 Z"/></g>
<g><path style="opacity:1" fill="#e6e6e6" d="M 258.5,59.5 C 257.877,52.7453 258.544,46.412 260.5,40.5C 260.369,41.3764 260.702,42.0431 261.5,42.5C 265.026,38.9416 268.86,38.6082 273,41.5C 274.41,47.3792 274.91,53.3792 274.5,59.5C 273.5,59.5 272.5,59.5 271.5,59.5C 271.666,54.4889 271.499,49.4889 271,44.5C 268.095,40.673 265.095,40.673 262,44.5C 261.501,49.4889 261.334,54.4889 261.5,59.5C 260.5,59.5 259.5,59.5 258.5,59.5 Z"/></g>
<g><path style="opacity:1" fill="#ededed" d="M 307.5,51.5 C 306.593,55.4075 304.26,58.0742 300.5,59.5C 290.386,59.3727 286.719,54.3727 289.5,44.5C 290.646,42.525 292.313,41.025 294.5,40C 303.357,38.6892 307.69,42.5225 307.5,51.5 Z"/></g>
<g><path style="opacity:1" fill="#f0f0f0" d="M 352.5,59.5 C 351.141,58.9935 350.141,57.9935 349.5,56.5C 340.889,62.0288 335.889,59.6955 334.5,49.5C 334.442,46.922 335.109,44.5887 336.5,42.5C 340.127,38.9015 344.127,38.5681 348.5,41.5C 349.489,37.8927 349.823,34.226 349.5,30.5C 350.5,30.5 351.5,30.5 352.5,30.5C 352.5,40.1667 352.5,49.8333 352.5,59.5 Z"/></g>
<g><path style="opacity:1" fill="#eeeeee" d="M 385.5,53.5 C 382.061,59.5767 377.061,61.0767 370.5,58C 369.029,56.4167 368.029,54.5834 367.5,52.5C 366.345,47.1448 368.012,42.9781 372.5,40C 383.009,38.3434 387.342,42.8434 385.5,53.5 Z"/></g>
<g><path style="opacity:1" fill="#eeefef" d="M 407.5,43.5 C 407.5,48.8333 407.5,54.1667 407.5,59.5C 406.5,59.5 405.5,59.5 404.5,59.5C 404.666,54.4889 404.499,49.4889 404,44.5C 401,40.5 398,40.5 395,44.5C 394.501,49.4889 394.334,54.4889 394.5,59.5C 393.167,59.5 391.833,59.5 390.5,59.5C 390.5,53.5 390.5,47.5 390.5,41.5C 390.821,39.9519 391.821,39.2852 393.5,39.5C 393.281,40.675 393.614,41.675 394.5,42.5C 399.079,38.475 403.412,38.8083 407.5,43.5 Z"/></g>
<g><path style="opacity:1" fill="#efefef" d="M 440.5,40.5 C 440.369,41.2389 440.536,41.9056 441,42.5C 445,38.5 449,38.5 453,42.5C 453.499,48.1569 453.666,53.8236 453.5,59.5C 452.5,59.5 451.5,59.5 450.5,59.5C 450.666,54.4889 450.499,49.4889 450,44.5C 447,41.8333 444,41.8333 441,44.5C 440.501,49.4889 440.334,54.4889 440.5,59.5C 439.5,59.5 438.5,59.5 437.5,59.5C 437.5,49.8333 437.5,40.1667 437.5,30.5C 438.5,30.5 439.5,30.5 440.5,30.5C 440.5,33.8333 440.5,37.1667 440.5,40.5 Z"/></g>
<g><path style="opacity:1" fill="#e5e5e5" d="M 211.5,39.5 C 221.482,38.9817 225.649,43.6484 224,53.5C 221.081,59.0248 216.581,60.8581 210.5,59C 203.533,51.989 203.866,45.489 211.5,39.5 Z"/></g>
<g><path style="opacity:1" fill="#0f0f0f" d="M 212.5,41.5 C 219.632,41.802 222.465,45.4687 221,52.5C 216.947,59.1517 212.947,59.1517 209,52.5C 207.662,47.9597 208.829,44.293 212.5,41.5 Z"/></g>
<g><path style="opacity:1" fill="#535353" d="M 260.5,40.5 C 258.544,46.412 257.877,52.7453 258.5,59.5C 257.509,53.021 257.176,46.3543 257.5,39.5C 258.791,39.2627 259.791,39.596 260.5,40.5 Z"/></g>
<g><path style="opacity:1" fill="#787878" d="M 468.5,41.5 C 473.167,41.5 475.5,43.8333 475.5,48.5C 471.833,48.5 468.167,48.5 464.5,48.5C 464.571,45.3477 465.905,43.0144 468.5,41.5 Z"/></g>
<g><path style="opacity:1" fill="#707070" d="M 298.5,57.5 C 296.88,53.5662 294.546,50.2329 291.5,47.5C 294.022,40.9657 297.855,39.9657 303,44.5C 305.905,50.48 304.405,54.8133 298.5,57.5 Z"/></g>
<g><path style="opacity:1" fill="#171717" d="M 291.5,47.5 C 294.546,50.2329 296.88,53.5662 298.5,57.5C 292.769,56.7394 290.435,53.406 291.5,47.5 Z"/></g>
<g><path style="opacity:1" fill="#efefef" d="M 326.5,42.5 C 327.452,48.0748 327.786,53.7414 327.5,59.5C 325.876,59.6399 324.71,58.9733 324,57.5C 321.083,59.3933 317.916,59.8933 314.5,59C 313.177,58.1841 312.511,57.0174 312.5,55.5C 312.343,54.1266 312.51,52.7932 313,51.5C 316.127,48.2902 319.961,46.9569 324.5,47.5C 324.714,45.8561 324.38,44.3561 323.5,43C 320.475,41.5661 317.475,41.0661 314.5,41.5C 314.709,40.914 315.043,40.414 315.5,40C 319.741,38.8118 323.408,39.6451 326.5,42.5 Z"/></g>
<g><path style="opacity:1" fill="#dadada" d="M 239.5,39.5 C 240.822,39.33 241.989,39.6634 243,40.5C 244.06,45.6376 245.56,50.6376 247.5,55.5C 249.439,50.6437 250.939,45.6437 252,40.5C 253.011,39.6634 254.178,39.33 255.5,39.5C 253.199,46.0293 251.199,52.696 249.5,59.5C 248.178,59.67 247.011,59.3366 246,58.5C 244.53,53.7574 242.864,49.0907 241,44.5C 239.333,49.1667 237.667,53.8333 236,58.5C 234.817,59.731 233.651,59.731 232.5,58.5C 230.817,52.4285 229.151,46.4285 227.5,40.5C 228.5,40.5 229.5,40.5 230.5,40.5C 231.542,45.6753 233.042,50.6753 235,55.5C 236.608,50.1781 238.108,44.8447 239.5,39.5 Z"/></g>
<g><path style="opacity:1" fill="#6a6a6a" d="M 318.5,49.5 C 320.5,49.5 322.5,49.5 324.5,49.5C 325.475,55.8495 322.808,58.3495 316.5,57C 314.84,53.7773 315.506,51.2773 318.5,49.5 Z"/></g>
<g><path style="opacity:1" fill="#868686" d="M 96.5,47.5 C 95.9898,50.3878 96.6565,52.7211 98.5,54.5C 97.791,55.404 96.791,55.7373 95.5,55.5C 95.1936,52.6146 95.5269,49.9479 96.5,47.5 Z"/></g>
<g><path style="opacity:1" fill="#fbfbfb" d="M 73.5,54.5 C 76.8499,54.335 80.1832,54.5017 83.5,55C 88.1019,56.8064 92.7686,58.3064 97.5,59.5C 102.306,58.5094 106.973,57.0094 111.5,55C 121.784,53.4285 130.117,56.7618 136.5,65C 123.879,75.5017 122.213,87.5017 131.5,101C 134.029,103.029 136.696,104.862 139.5,106.5C 135.796,116.432 129.796,124.599 121.5,131C 119.634,131.985 117.634,132.485 115.5,132.5C 110.048,130.352 104.382,129.018 98.5,128.5C 93.8113,128.341 89.478,129.507 85.5,132C 81.2176,132.965 77.2176,132.298 73.5,130C 58.6811,115.239 52.1811,97.4058 54,76.5C 56.6062,65.5634 63.1062,58.23 73.5,54.5 Z"/></g>
<g><path style="opacity:1" fill="#656565" d="M 336.5,42.5 C 335.109,44.5887 334.442,46.922 334.5,49.5C 335.889,59.6955 340.889,62.0288 349.5,56.5C 350.141,57.9935 351.141,58.9935 352.5,59.5C 353.328,53.6807 353.828,47.6807 354,41.5C 354.192,43.5767 354.692,45.5767 355.5,47.5C 358.851,47.8489 362.517,48.1823 366.5,48.5C 366.232,50.099 366.566,51.4324 367.5,52.5C 368.029,54.5834 369.029,56.4167 370.5,58C 377.061,61.0767 382.061,59.5767 385.5,53.5C 386.317,51.0314 386.817,48.3647 387,45.5C 387.182,48.2263 387.682,50.8929 388.5,53.5C 389.167,49.3525 389.834,45.3525 390.5,41.5C 390.5,47.5 390.5,53.5 390.5,59.5C 391.833,59.5 393.167,59.5 394.5,59.5C 394.334,54.4889 394.501,49.4889 395,44.5C 398,40.5 401,40.5 404,44.5C 404.499,49.4889 404.666,54.4889 404.5,59.5C 405.5,59.5 406.5,59.5 407.5,59.5C 407.5,54.1667 407.5,48.8333 407.5,43.5C 408.746,45.0084 410.08,46.5084 411.5,48C 414.126,47.852 416.626,48.0187 419,48.5C 420.107,48.4148 421.107,48.0814 422,47.5C 423.934,45.5812 423.767,44.0812 421.5,43C 421.728,42.6012 422.062,42.4346 422.5,42.5C 424.28,46.7274 425.114,51.3941 425,56.5C 426.911,59.303 429.411,59.9696 432.5,58.5C 431.372,57.7379 430.205,57.0712 429,56.5C 428.185,51.6478 428.352,46.9811 429.5,42.5C 428.632,47.9787 430.632,49.6453 435.5,47.5C 435.34,45.8008 435.506,44.1341 436,42.5C 436.173,48.3482 436.673,54.0149 437.5,59.5C 438.5,59.5 439.5,59.5 440.5,59.5C 440.334,54.4889 440.501,49.4889 441,44.5C 444,41.8333 447,41.8333 450,44.5C 450.499,49.4889 450.666,54.4889 450.5,59.5C 451.5,59.5 452.5,59.5 453.5,59.5C 454.326,54.6835 454.826,49.6835 455,44.5C 455.333,45.8333 455.667,47.1667 456,48.5C 457.067,47.8095 458.234,47.3095 459.5,47C 460.474,44.3355 461.141,44.1688 461.5,46.5C 461.042,58.4357 466.376,62.269 477.5,58C 473.713,57.8404 470.046,57.1737 466.5,56C 465.139,54.4157 464.472,52.5824 464.5,50.5C 469.167,50.5 473.833,50.5 478.5,50.5C 479.421,50.0697 479.921,48.7364 480,46.5C 481.57,47.3578 483.237,48.0245 485,48.5C 511.652,48.4904 538.152,48.4904 564.5,48.5C 564.5,54.5 564.5,60.5 564.5,66.5C 478.129,67.7583 392.462,67.7583 307.5,66.5C 307.5,67.5 307.5,68.5 307.5,69.5C 304.687,66.5541 302.354,63.2208 300.5,59.5C 304.26,58.0742 306.593,55.4075 307.5,51.5C 309.167,52.8333 310.833,54.1667 312.5,55.5C 312.511,57.0174 313.177,58.1841 314.5,59C 317.916,59.8933 321.083,59.3933 324,57.5C 324.71,58.9733 325.876,59.6399 327.5,59.5C 327.786,53.7414 327.452,48.0748 326.5,42.5C 330.007,41.6677 333.341,41.6677 336.5,42.5 Z"/></g>
<g><path style="opacity:1" fill="#6e6e6e" d="M 374.5,41.5 C 381.726,42.2517 384.226,46.2517 382,53.5C 380.309,57.2127 377.475,58.3794 373.5,57C 369.254,51.4832 369.588,46.3165 374.5,41.5 Z"/></g>
<g><path style="opacity:1" fill="#6e6e6e" d="M 341.5,41.5 C 344.652,40.9586 347.152,41.9586 349,44.5C 349.667,47.8333 349.667,51.1667 349,54.5C 344.498,58.8672 340.832,58.2005 338,52.5C 336.882,48.0767 338.049,44.41 341.5,41.5 Z"/></g>
<g><path style="opacity:1" fill="#565656" d="M 564.5,66.5 C 564.5,69.5 564.5,72.5 564.5,75.5C 563.526,76.635 562.359,77.635 561,78.5C 479.223,77.5877 397.223,77.2543 315,77.5C 314.517,78.448 314.351,79.448 314.5,80.5C 311.779,77.106 309.446,73.4394 307.5,69.5C 307.5,68.5 307.5,67.5 307.5,66.5C 392.462,67.7583 478.129,67.7583 564.5,66.5 Z"/></g>
<g><path style="opacity:1" fill="#f4f4f4" d="M 341.5,87.5 C 337.944,89.0869 336.778,91.7536 338,95.5C 342.637,99.2364 347.804,102.07 353.5,104C 358.669,107.506 360.669,112.339 359.5,118.5C 359.509,120.308 359.009,121.975 358,123.5C 355.536,126.481 352.703,128.814 349.5,130.5C 344.156,130.666 338.823,130.499 333.5,130C 328.066,128.401 327.066,125.234 330.5,120.5C 334.834,122.768 339.5,123.768 344.5,123.5C 351.752,121.172 353.085,117.005 348.5,111C 341.787,108.897 335.954,105.397 331,100.5C 328.994,97.4642 328.16,94.1309 328.5,90.5C 333.79,80.5374 342.123,77.0374 353.5,80C 358.135,81.7961 358.802,84.6295 355.5,88.5C 350.811,86.4268 346.144,86.0935 341.5,87.5 Z"/></g>
<g><path style="opacity:1" fill="#f4f5f5" d="M 218.5,128.5 C 215.713,129.477 212.713,129.81 209.5,129.5C 208.576,125.059 207.242,120.725 205.5,116.5C 199.872,115.505 194.206,115.171 188.5,115.5C 187.37,120.224 186.036,124.891 184.5,129.5C 181.615,129.806 178.948,129.473 176.5,128.5C 181.028,112.75 185.861,97.0834 191,81.5C 193.075,80.8656 195.241,80.5323 197.5,80.5C 199.964,80.5899 202.13,81.2565 204,82.5C 208.562,97.947 213.395,113.28 218.5,128.5 Z"/></g>
<g><path style="opacity:1" fill="#494949" d="M 564.5,75.5 C 564.5,79.5 564.5,83.5 564.5,87.5C 563.732,88.2625 563.232,89.2625 563,90.5C 502.169,90.165 441.503,90.165 381,90.5C 380.667,88.8333 380.333,87.1667 380,85.5C 379.503,88.146 379.336,90.8127 379.5,93.5C 382.385,93.1936 385.052,93.5269 387.5,94.5C 384.5,94.5 381.5,94.5 378.5,94.5C 378.5,91.5 378.5,88.5 378.5,85.5C 371.592,84.7413 368.925,87.7413 370.5,94.5C 368.833,94.5 367.167,94.5 365.5,94.5C 365.5,96.5 365.5,98.5 365.5,100.5C 364.691,98.7078 364.191,96.7078 364,94.5C 356.073,94.2215 348.24,94.5548 340.5,95.5C 338.721,91.9036 339.721,89.4036 343.5,88C 342.906,87.5357 342.239,87.369 341.5,87.5C 346.144,86.0935 350.811,86.4268 355.5,88.5C 358.802,84.6295 358.135,81.7961 353.5,80C 342.123,77.0374 333.79,80.5374 328.5,90.5C 328.631,89.7611 328.464,89.0944 328,88.5C 327.151,91.5214 326.317,94.5214 325.5,97.5C 321.447,92.1076 317.78,86.4409 314.5,80.5C 314.351,79.448 314.517,78.448 315,77.5C 397.223,77.2543 479.223,77.5877 561,78.5C 562.359,77.635 563.526,76.635 564.5,75.5 Z"/></g>
<g><path style="opacity:1" fill="#f8f8f8" d="M 387.5,94.5 C 387.5,96.5 387.5,98.5 387.5,100.5C 384.5,100.5 381.5,100.5 378.5,100.5C 378.176,107.354 378.509,114.021 379.5,120.5C 379.414,121.496 379.748,122.329 380.5,123C 382.81,123.497 385.143,123.663 387.5,123.5C 387.756,125.792 387.423,127.959 386.5,130C 377.817,132.952 372.483,130.119 370.5,121.5C 370.5,114.5 370.5,107.5 370.5,100.5C 368.833,100.5 367.167,100.5 365.5,100.5C 365.5,98.5 365.5,96.5 365.5,94.5C 367.167,94.5 368.833,94.5 370.5,94.5C 368.925,87.7413 371.592,84.7413 378.5,85.5C 378.5,88.5 378.5,91.5 378.5,94.5C 381.5,94.5 384.5,94.5 387.5,94.5 Z"/></g>
<g><path style="opacity:0.999" fill="#3c3c3c" d="M 564.5,87.5 C 564.5,93.8333 564.5,100.167 564.5,106.5C 563.883,106.389 563.383,106.056 563,105.5C 557.667,106.167 552.333,106.833 547,107.5C 529.667,106.833 512.333,106.167 495,105.5C 494.819,108.695 494.319,111.695 493.5,114.5C 494.819,98.9845 487.819,92.1512 472.5,94C 464.271,98.2859 460.605,105.119 461.5,114.5C 460.71,113.391 460.21,112.058 460,110.5C 459.667,111.5 459.333,112.5 459,113.5C 454.96,112.769 450.793,112.436 446.5,112.5C 446.784,110.585 446.451,108.919 445.5,107.5C 447.049,102.63 450.383,100.63 455.5,101.5C 455.5,98.8333 455.5,96.1667 455.5,93.5C 450.048,93.1437 446.215,95.477 444,100.5C 443.505,98.5273 443.338,96.5273 443.5,94.5C 441.167,94.5 438.833,94.5 436.5,94.5C 436.167,94.5 435.833,94.5 435.5,94.5C 434.517,98.2984 434.183,102.298 434.5,106.5C 431.167,106.973 429,105.64 428,102.5C 427.601,102.728 427.435,103.062 427.5,103.5C 425.732,101.492 424.066,99.3256 422.5,97C 411.366,90.8783 401.866,92.7117 394,102.5C 392.646,106.363 392.146,110.363 392.5,114.5C 391.683,112.031 391.183,109.365 391,106.5C 390.667,108.167 390.333,109.833 390,111.5C 389.612,112.428 388.945,113.095 388,113.5C 385.677,113.189 383.344,112.856 381,112.5C 380.667,108.833 380.333,105.167 380,101.5C 379.5,107.825 379.334,114.158 379.5,120.5C 378.509,114.021 378.176,107.354 378.5,100.5C 381.5,100.5 384.5,100.5 387.5,100.5C 387.5,98.5 387.5,96.5 387.5,94.5C 385.052,93.5269 382.385,93.1936 379.5,93.5C 379.336,90.8127 379.503,88.146 380,85.5C 380.333,87.1667 380.667,88.8333 381,90.5C 441.503,90.165 502.169,90.165 563,90.5C 563.232,89.2625 563.732,88.2625 564.5,87.5 Z"/></g>
<g><path style="opacity:1" fill="#121212" d="M 196.5,87.5 C 199.606,94.4876 201.939,101.821 203.5,109.5C 199.167,109.5 194.833,109.5 190.5,109.5C 192.488,102.218 194.488,94.8849 196.5,87.5 Z"/></g>
<g><path style="opacity:1" fill="#f3f4f4" d="M 240.5,93.5 C 249.786,92.3892 256.286,96.0559 260,104.5C 262.676,115.36 259.51,123.86 250.5,130C 246.833,130.667 243.167,130.667 239.5,130C 237.714,129.215 236.214,128.049 235,126.5C 234.501,132.491 234.334,138.491 234.5,144.5C 231.5,144.5 228.5,144.5 225.5,144.5C 225.5,127.833 225.5,111.167 225.5,94.5C 227.833,94.5 230.167,94.5 232.5,94.5C 232.215,96.288 232.548,97.9547 233.5,99.5C 235.678,97.2553 238.012,95.2553 240.5,93.5 Z"/></g>
<g><path style="opacity:1" fill="#f5f5f5" d="M 286.5,93.5 C 302.144,93.705 308.644,101.705 306,117.5C 302.716,128.228 295.549,132.395 284.5,130C 283.019,129.02 281.685,127.853 280.5,126.5C 279.504,132.463 279.171,138.463 279.5,144.5C 276.833,144.5 274.167,144.5 271.5,144.5C 271.5,127.833 271.5,111.167 271.5,94.5C 273.833,94.5 276.167,94.5 278.5,94.5C 278.34,96.1992 278.506,97.8659 279,99.5C 281.134,96.8474 283.634,94.8474 286.5,93.5 Z"/></g>
<g><path style="opacity:1" fill="#f4f4f4" d="M 427.5,103.5 C 430.571,125.801 421.238,133.968 399.5,128C 394.913,124.66 392.58,120.16 392.5,114.5C 392.146,110.363 392.646,106.363 394,102.5C 401.866,92.7117 411.366,90.8783 422.5,97C 424.066,99.3256 425.732,101.492 427.5,103.5 Z"/></g>
<g><path style="opacity:1" fill="#f8f8f8" d="M 445.5,107.5 C 444.508,114.648 444.175,121.981 444.5,129.5C 441.833,129.5 439.167,129.5 436.5,129.5C 436.5,117.833 436.5,106.167 436.5,94.5C 438.833,94.5 441.167,94.5 443.5,94.5C 443.338,96.5273 443.505,98.5273 444,100.5C 446.215,95.477 450.048,93.1437 455.5,93.5C 455.5,96.1667 455.5,98.8333 455.5,101.5C 450.383,100.63 447.049,102.63 445.5,107.5 Z"/></g>
<g><path style="opacity:1" fill="#f3f3f3" d="M 493.5,114.5 C 485.5,114.5 477.5,114.5 469.5,114.5C 469.235,119.564 471.569,122.564 476.5,123.5C 481.436,124.099 486.436,124.099 491.5,123.5C 491.739,125.467 491.406,127.301 490.5,129C 484.558,130.406 478.558,130.739 472.5,130C 465.477,127.154 461.81,121.987 461.5,114.5C 460.605,105.119 464.271,98.2859 472.5,94C 487.819,92.1512 494.819,98.9845 493.5,114.5 Z"/></g>
<g><path style="opacity:1" fill="#3a3a3a" d="M 341.5,87.5 C 342.239,87.369 342.906,87.5357 343.5,88C 339.721,89.4036 338.721,91.9036 340.5,95.5C 348.24,94.5548 356.073,94.2215 364,94.5C 364.191,96.7078 364.691,98.7078 365.5,100.5C 367.167,100.5 368.833,100.5 370.5,100.5C 370.5,107.5 370.5,114.5 370.5,121.5C 369.509,115.021 369.176,108.354 369.5,101.5C 365.162,101.622 364.828,101.955 368.5,102.5C 368.665,106.182 368.499,109.848 368,113.5C 365.568,112.707 363.234,112.374 361,112.5C 360.809,114.708 360.309,116.708 359.5,118.5C 360.669,112.339 358.669,107.506 353.5,104C 347.804,102.07 342.637,99.2364 338,95.5C 336.778,91.7536 337.944,89.0869 341.5,87.5 Z"/></g>
<g><path style="opacity:1" fill="#080808" d="M 238.5,100.5 C 247.526,99.0262 252.193,102.86 252.5,112C 252.206,120.634 247.873,124.634 239.5,124C 237.43,123.052 235.93,121.552 235,119.5C 234.333,114.5 234.333,109.5 235,104.5C 236.376,103.295 237.542,101.962 238.5,100.5 Z"/></g>
<g><path style="opacity:1" fill="#060606" d="M 284.5,100.5 C 295.859,100.484 300.026,106.15 297,117.5C 294.246,123.627 289.746,125.46 283.5,123C 281.513,121.681 280.346,119.848 280,117.5C 278.172,110.759 279.672,105.093 284.5,100.5 Z"/></g>
<g><path style="opacity:1" fill="#333333" d="M 474.5,99.5 C 481.523,98.5304 485.19,101.53 485.5,108.5C 480.167,108.5 474.833,108.5 469.5,108.5C 469.878,104.742 471.544,101.742 474.5,99.5 Z"/></g>
<g><path style="opacity:1" fill="#2b2b2b" d="M 406.5,99.5 C 412.612,98.5767 416.779,100.91 419,106.5C 419.977,111.734 419.31,116.734 417,121.5C 410.335,126.335 405.335,125.001 402,117.5C 400.226,110.523 401.726,104.523 406.5,99.5 Z"/></g>
<g><path style="opacity:1" fill="#2b2b2b" d="M 328.5,90.5 C 328.16,94.1309 328.994,97.4642 331,100.5C 335.954,105.397 341.787,108.897 348.5,111C 353.085,117.005 351.752,121.172 344.5,123.5C 342.295,122.802 340.461,121.468 339,119.5C 334.248,112.264 329.748,104.931 325.5,97.5C 326.317,94.5214 327.151,91.5214 328,88.5C 328.464,89.0944 328.631,89.7611 328.5,90.5 Z"/></g>
<g><path style="opacity:1" fill="#9e9f9f" d="M 435.5,94.5 C 435.833,94.5 436.167,94.5 436.5,94.5C 436.5,106.167 436.5,117.833 436.5,129.5C 439.167,129.5 441.833,129.5 444.5,129.5C 441.713,130.477 438.713,130.81 435.5,130.5C 435.5,118.5 435.5,106.5 435.5,94.5 Z"/></g>
<g><path style="opacity:0.999" fill="#2a2a2a" d="M 564.5,106.5 C 564.5,111.5 564.5,116.5 564.5,121.5C 562.648,120.911 560.815,120.244 559,119.5C 533.389,120.486 508.056,120.486 483,119.5C 480.595,120.274 478.095,120.774 475.5,121C 476.252,121.671 476.586,122.504 476.5,123.5C 471.569,122.564 469.235,119.564 469.5,114.5C 477.5,114.5 485.5,114.5 493.5,114.5C 494.319,111.695 494.819,108.695 495,105.5C 512.333,106.167 529.667,106.833 547,107.5C 552.333,106.833 557.667,106.167 563,105.5C 563.383,106.056 563.883,106.389 564.5,106.5 Z"/></g>
<g><path style="opacity:1" fill="#1e1e1e" d="M 435.5,94.5 C 435.5,106.5 435.5,118.5 435.5,130.5C 438.713,130.81 441.713,130.477 444.5,129.5C 444.175,121.981 444.508,114.648 445.5,107.5C 446.451,108.919 446.784,110.585 446.5,112.5C 450.793,112.436 454.96,112.769 459,113.5C 459.333,112.5 459.667,111.5 460,110.5C 460.21,112.058 460.71,113.391 461.5,114.5C 461.81,121.987 465.477,127.154 472.5,130C 478.558,130.739 484.558,130.406 490.5,129C 491.406,127.301 491.739,125.467 491.5,123.5C 486.436,124.099 481.436,124.099 476.5,123.5C 476.586,122.504 476.252,121.671 475.5,121C 478.095,120.774 480.595,120.274 483,119.5C 508.056,120.486 533.389,120.486 559,119.5C 560.815,120.244 562.648,120.911 564.5,121.5C 564.5,124.833 564.5,128.167 564.5,131.5C 563.596,132.209 563.263,133.209 563.5,134.5C 493.798,134.675 423.464,134.675 352.5,134.5C 351.818,135.243 351.151,135.909 350.5,136.5C 349.399,135.152 348.399,133.652 347.5,132C 348.416,131.722 349.082,131.222 349.5,130.5C 352.703,128.814 355.536,126.481 358,123.5C 359.009,121.975 359.509,120.308 359.5,118.5C 360.309,116.708 360.809,114.708 361,112.5C 363.234,112.374 365.568,112.707 368,113.5C 368.499,109.848 368.665,106.182 368.5,102.5C 364.828,101.955 365.162,101.622 369.5,101.5C 369.176,108.354 369.509,115.021 370.5,121.5C 372.483,130.119 377.817,132.952 386.5,130C 387.423,127.959 387.756,125.792 387.5,123.5C 385.143,123.663 382.81,123.497 380.5,123C 379.748,122.329 379.414,121.496 379.5,120.5C 379.334,114.158 379.5,107.825 380,101.5C 380.333,105.167 380.667,108.833 381,112.5C 383.344,112.856 385.677,113.189 388,113.5C 388.945,113.095 389.612,112.428 390,111.5C 390.333,109.833 390.667,108.167 391,106.5C 391.183,109.365 391.683,112.031 392.5,114.5C 392.58,120.16 394.913,124.66 399.5,128C 421.238,133.968 430.571,125.801 427.5,103.5C 427.435,103.062 427.601,102.728 428,102.5C 429,105.64 431.167,106.973 434.5,106.5C 434.183,102.298 434.517,98.2984 435.5,94.5 Z"/></g>
<g><path style="opacity:1" fill="#626262" d="M 176.5,128.5 C 178.948,129.473 181.615,129.806 184.5,129.5C 181.645,130.803 178.645,130.803 175.5,129.5C 175.624,128.893 175.957,128.56 176.5,128.5 Z"/></g>
<g><path style="opacity:1" fill="#5d5d5d" d="M 218.5,128.5 C 219.043,128.56 219.376,128.893 219.5,129.5C 216.02,130.806 212.687,130.806 209.5,129.5C 212.713,129.81 215.713,129.477 218.5,128.5 Z"/></g>
<g><path style="opacity:1" fill="#151515" d="M 564.5,131.5 C 564.5,135.5 564.5,139.5 564.5,143.5C 563.849,142.909 563.182,142.243 562.5,141.5C 493.485,141.516 424.151,141.849 354.5,142.5C 352.808,140.795 351.475,138.795 350.5,136.5C 351.151,135.909 351.818,135.243 352.5,134.5C 423.464,134.675 493.798,134.675 563.5,134.5C 563.263,133.209 563.596,132.209 564.5,131.5 Z"/></g>
<g><path style="opacity:1" fill="#0b0b0b" d="M 564.5,143.5 C 564.666,148.179 564.499,152.845 564,157.5C 563.722,158.416 563.222,159.082 562.5,159.5C 562.503,154.408 561.67,154.408 560,159.5C 551.356,159.283 542.523,158.949 533.5,158.5C 531.758,160.973 529.925,160.973 528,158.5C 505.602,159.568 483.602,159.568 462,158.5C 461.333,159.167 460.667,159.833 460,160.5C 458,159.833 456,159.167 454,158.5C 446.189,159.405 438.522,159.405 431,158.5C 429.149,160.781 427.482,160.781 426,158.5C 424.333,159.167 422.667,159.833 421,160.5C 417.978,158.995 414.978,158.328 412,158.5C 406.254,160.577 400.588,160.577 395,158.5C 392.888,160.922 390.888,160.922 389,158.5C 384.29,159.542 379.624,159.542 375,158.5C 372.539,159.218 370.039,159.885 367.5,160.5C 362.18,155.186 357.847,149.186 354.5,142.5C 424.151,141.849 493.485,141.516 562.5,141.5C 563.182,142.243 563.849,142.909 564.5,143.5 Z"/></g>
</svg>
