<?xml version="1.0" encoding="UTF-8"?>
<!DOCTYPE svg PUBLIC "-//W3C//DTD SVG 1.1//EN" "http://www.w3.org/Graphics/SVG/1.1/DTD/svg11.dtd">
<svg xmlns="http://www.w3.org/2000/svg" version="1.1" width="800px" height="300px" style="shape-rendering:geometricPrecision; text-rendering:geometricPrecision; image-rendering:optimizeQuality; fill-rule:evenodd; clip-rule:evenodd" xmlns:xlink="http://www.w3.org/1999/xlink">
<g><path style="opacity:0.008" fill="#000000" d="M 91.5,21.5 C 297.333,20.3337 503.333,20.1671 709.5,21C 503.5,21.5 297.5,21.6667 91.5,21.5 Z"/></g>
<g><path style="opacity:0.982" fill="#010101" d="M 712.5,23.5 C 713.899,24.8897 715.566,25.8897 717.5,26.5C 719.142,27.803 720.809,29.1363 722.5,30.5C 723.026,32.2303 724.026,33.5637 725.5,34.5C 725.932,35.7095 726.599,36.7095 727.5,37.5C 727.402,39.5529 728.069,41.2196 729.5,42.5C 729.5,113.5 729.5,184.5 729.5,255.5C 728.347,256.313 728.347,257.313 729.5,258.5C 729.154,259.696 728.654,259.696 728,258.5C 727.536,259.094 727.369,259.761 727.5,260.5C 726.599,261.29 725.932,262.29 725.5,263.5C 724.167,263.833 724.167,264.167 725.5,264.5C 724.306,265.272 723.306,266.272 722.5,267.5C 721.833,267.5 721.5,267.833 721.5,268.5C 720.833,268.5 720.5,268.833 720.5,269.5C 719.833,269.5 719.5,269.833 719.5,270.5C 717.973,270.427 716.973,271.094 716.5,272.5C 715.508,272.328 714.842,272.662 714.5,273.5C 713.508,273.328 712.842,273.662 712.5,274.5C 608.307,275.829 503.974,276.496 399.5,276.5C 295.833,276.333 192.167,276.167 88.5,276C 89.8333,275.333 89.8333,274.667 88.5,274C 87.552,273.517 86.552,273.351 85.5,273.5C 85.1583,272.662 84.4916,272.328 83.5,272.5C 80.9302,270.386 78.5968,268.053 76.5,265.5C 75.1399,263.46 73.8066,261.46 72.5,259.5C 72.7373,258.209 72.404,257.209 71.5,256.5C 71.1757,255.188 70.5091,254.355 69.5,254C 70.8318,183.821 70.8318,113.654 69.5,43.5C 70.2427,42.8182 70.9094,42.1515 71.5,41.5C 72.404,40.791 72.7373,39.791 72.5,38.5C 73.3382,38.1583 73.6716,37.4916 73.5,36.5C 76.8333,32.5 80.5,28.8333 84.5,25.5C 86.4846,25.1414 87.1513,24.308 86.5,23C 295.236,22.1679 503.903,22.3346 712.5,23.5 Z"/></g>
<g><path style="opacity:0.004" fill="#000000" d="M 712.5,23.5 C 712.897,22.475 713.563,22.3083 714.5,23C 713.906,23.4643 713.239,23.631 712.5,23.5 Z"/></g>
<g><path style="opacity:0.004" fill="#000000" d="M 84.5,25.5 C 83.8333,24.1667 83.8333,24.1667 84.5,25.5 Z"/></g>
<g><path style="opacity:0.004" fill="#000000" d="M 717.5,25.5 C 718.833,26.1667 718.833,26.1667 717.5,25.5 Z"/></g>
<g><path style="opacity:0.004" fill="#000000" d="M 722.5,29.5 C 723.833,30.1667 723.833,30.1667 722.5,29.5 Z"/></g>
<g><path style="opacity:0.004" fill="#000000" d="M 725.5,33.5 C 726.833,34.1667 726.833,34.1667 725.5,33.5 Z"/></g>
<g><path style="opacity:0.004" fill="#000000" d="M 73.5,36.5 C 72.8333,35.1667 72.8333,35.1667 73.5,36.5 Z"/></g>
<g><path style="opacity:0.004" fill="#000000" d="M 727.5,36.5 C 728.833,37.1667 728.833,37.1667 727.5,36.5 Z"/></g>
<g><path style="opacity:0.004" fill="#000000" d="M 72.5,38.5 C 71.8333,37.1667 71.8333,37.1667 72.5,38.5 Z"/></g>
<g><path style="opacity:0.004" fill="#000000" d="M 71.5,41.5 C 70.475,41.1034 70.3083,40.4368 71,39.5C 71.4643,40.0944 71.631,40.7611 71.5,41.5 Z"/></g>
<g><path style="opacity:0.004" fill="#000000" d="M 729.5,42.5 C 729.369,41.7611 729.536,41.0944 730,40.5C 730.692,41.4368 730.525,42.1034 729.5,42.5 Z"/></g>
<g><path style="opacity:0.015" fill="#000000" d="M 730.5,43.5 C 731.665,113.665 731.832,183.999 731,254.5C 730.5,184.167 730.333,113.834 730.5,43.5 Z"/></g>
<g><path style="opacity:1" fill="#5a5a5a" d="M 356.5,64.5 C 362.31,63.5104 368.31,63.1771 374.5,63.5C 374.5,65.5 374.5,67.5 374.5,69.5C 372.5,69.5 370.5,69.5 368.5,69.5C 369.919,68.5489 371.585,68.2155 373.5,68.5C 373.5,67.5 373.5,66.5 373.5,65.5C 368.025,64.5111 362.358,64.1778 356.5,64.5 Z"/></g>
<g><path style="opacity:1" fill="#919191" d="M 277.5,64.5 C 274.833,64.8333 272.167,65.1667 269.5,65.5C 271.993,63.4162 274.66,63.0829 277.5,64.5 Z"/></g>
<g><path style="opacity:1" fill="#b2b2b2" d="M 356.5,64.5 C 362.358,64.1778 368.025,64.5111 373.5,65.5C 368.167,65.5 362.833,65.5 357.5,65.5C 357.5,66.5 357.5,67.5 357.5,68.5C 359.415,68.2155 361.081,68.5489 362.5,69.5C 360.5,69.5 358.5,69.5 356.5,69.5C 356.5,67.8333 356.5,66.1667 356.5,64.5 Z"/></g>
<g><path style="opacity:1" fill="#adadad" d="M 405.5,65.5 C 401.766,65.3227 398.099,65.6561 394.5,66.5C 395.898,64.4672 397.898,63.4672 400.5,63.5C 402.557,63.4357 404.223,64.1024 405.5,65.5 Z"/></g>
<g><path style="opacity:1" fill="#e6e6e6" d="M 277.5,64.5 C 282.119,65.1268 284.119,67.7935 283.5,72.5C 281.833,72.5 280.167,72.5 278.5,72.5C 278.5,71.5 278.5,70.5 278.5,69.5C 272.181,68.216 269.514,70.716 270.5,77C 269.929,82.9283 272.596,85.7617 278.5,85.5C 278.5,83.8333 278.5,82.1667 278.5,80.5C 277.167,80.5 275.833,80.5 274.5,80.5C 274.5,79.1667 274.5,77.8333 274.5,76.5C 277.833,76.5 281.167,76.5 284.5,76.5C 284.823,80.226 284.489,83.8927 283.5,87.5C 282.817,87.8627 282.15,88.1961 281.5,88.5C 277.5,89.8333 273.5,89.8333 269.5,88.5C 266.041,85.5298 264.708,81.6965 265.5,77C 264.702,72.2592 266.035,68.4258 269.5,65.5C 272.167,65.1667 274.833,64.8333 277.5,64.5 Z"/></g>
<g><path style="opacity:1" fill="#f4f4f4" d="M 296.5,69.5 C 296.5,71.1667 296.5,72.8333 296.5,74.5C 298.607,75.4682 300.941,75.8016 303.5,75.5C 303.5,76.5 303.5,77.5 303.5,78.5C 300.941,78.1984 298.607,78.5318 296.5,79.5C 296.5,81.1667 296.5,82.8333 296.5,84.5C 298.988,86.3878 301.988,87.0545 305.5,86.5C 305.5,87.5 305.5,88.5 305.5,89.5C 300.833,89.5 296.167,89.5 291.5,89.5C 291.5,81.5 291.5,73.5 291.5,65.5C 296.167,65.5 300.833,65.5 305.5,65.5C 305.5,66.5 305.5,67.5 305.5,68.5C 302.287,68.19 299.287,68.5233 296.5,69.5 Z"/></g>
<g><path style="opacity:1" fill="#ebebeb" d="M 328.5,64.5 C 328.5,66.1667 328.5,67.8333 328.5,69.5C 326.5,69.5 324.5,69.5 322.5,69.5C 322.5,76.1667 322.5,82.8333 322.5,89.5C 320.833,89.5 319.167,89.5 317.5,89.5C 317.5,82.5 317.5,75.5 317.5,68.5C 315.5,68.5 313.5,68.5 311.5,68.5C 311.5,67.1667 311.5,65.8333 311.5,64.5C 317.167,64.5 322.833,64.5 328.5,64.5 Z"/></g>
<g><path style="opacity:1" fill="#fafafa" d="M 346.5,65.5 C 347.833,65.5 349.167,65.5 350.5,65.5C 350.5,73.5 350.5,81.5 350.5,89.5C 349.167,89.5 347.833,89.5 346.5,89.5C 346.5,81.5 346.5,73.5 346.5,65.5 Z"/></g>
<g><path style="opacity:1" fill="#fafafa" d="M 373.5,65.5 C 373.5,66.5 373.5,67.5 373.5,68.5C 371.585,68.2155 369.919,68.5489 368.5,69.5C 367.509,75.979 367.176,82.6457 367.5,89.5C 366.167,89.5 364.833,89.5 363.5,89.5C 363.824,82.6457 363.491,75.979 362.5,69.5C 361.081,68.5489 359.415,68.2155 357.5,68.5C 357.5,67.5 357.5,66.5 357.5,65.5C 362.833,65.5 368.167,65.5 373.5,65.5 Z"/></g>
<g><path style="opacity:1" fill="#e2e2e2" d="M 405.5,65.5 C 407.504,66.6728 409.004,68.3395 410,70.5C 410.667,74.5 410.667,78.5 410,82.5C 407.446,89.5267 402.613,91.86 395.5,89.5C 393.808,87.6414 392.308,85.6414 391,83.5C 390.333,79.1667 390.333,74.8333 391,70.5C 391.66,68.6763 392.827,67.343 394.5,66.5C 398.099,65.6561 401.766,65.3227 405.5,65.5 Z"/></g>
<g><path style="opacity:1" fill="#5d5d5d" d="M 417.5,64.5 C 417.5,72.8333 417.5,81.1667 417.5,89.5C 419.167,89.5 420.833,89.5 422.5,89.5C 422.334,84.8215 422.501,80.1548 423,75.5C 424.481,76.4709 425.315,77.8042 425.5,79.5C 424.883,79.3893 424.383,79.056 424,78.5C 423.501,82.4862 423.334,86.4862 423.5,90.5C 421.167,90.5 418.833,90.5 416.5,90.5C 416.174,81.6506 416.507,72.9839 417.5,64.5 Z"/></g>
<g><path style="opacity:1" fill="#f3f3f3" d="M 417.5,64.5 C 419.467,64.2606 421.301,64.5939 423,65.5C 425.372,68.9099 427.205,72.5766 428.5,76.5C 428.415,77.9953 429.081,78.9953 430.5,79.5C 431.493,74.8804 431.827,70.2137 431.5,65.5C 432.833,65.5 434.167,65.5 435.5,65.5C 435.5,73.5 435.5,81.5 435.5,89.5C 433.833,89.5 432.167,89.5 430.5,89.5C 428.825,86.1228 427.158,82.7895 425.5,79.5C 425.315,77.8042 424.481,76.4709 423,75.5C 422.501,80.1548 422.334,84.8215 422.5,89.5C 420.833,89.5 419.167,89.5 417.5,89.5C 417.5,81.1667 417.5,72.8333 417.5,64.5 Z"/></g>
<g><path style="opacity:1" fill="#888888" d="M 296.5,69.5 C 299.287,68.5233 302.287,68.19 305.5,68.5C 305.5,67.5 305.5,66.5 305.5,65.5C 300.833,65.5 296.167,65.5 291.5,65.5C 291.5,73.5 291.5,81.5 291.5,89.5C 296.167,89.5 300.833,89.5 305.5,89.5C 305.5,88.5 305.5,87.5 305.5,86.5C 301.988,87.0545 298.988,86.3878 296.5,84.5C 299.518,84.3354 302.518,84.502 305.5,85C 306.406,86.6995 306.739,88.5328 306.5,90.5C 301.167,90.5 295.833,90.5 290.5,90.5C 290.5,81.5 290.5,72.5 290.5,63.5C 295.511,63.3341 300.511,63.5007 305.5,64C 306.406,65.6995 306.739,67.5328 306.5,69.5C 303.167,69.5 299.833,69.5 296.5,69.5 Z"/></g>
<g><path style="opacity:1" fill="#7f7f7f" d="M 351.5,64.5 C 349.585,64.2155 347.919,64.5489 346.5,65.5C 346.5,73.5 346.5,81.5 346.5,89.5C 347.833,89.5 349.167,89.5 350.5,89.5C 350.833,89.5 351.167,89.5 351.5,89.5C 349.735,90.4614 347.735,90.7947 345.5,90.5C 345.5,81.5 345.5,72.5 345.5,63.5C 347.735,63.2053 349.735,63.5386 351.5,64.5 Z"/></g>
<g><path style="opacity:1" fill="#b9b9b9" d="M 346.5,65.5 C 347.919,64.5489 349.585,64.2155 351.5,64.5C 351.5,72.8333 351.5,81.1667 351.5,89.5C 351.167,89.5 350.833,89.5 350.5,89.5C 350.5,81.5 350.5,73.5 350.5,65.5C 349.167,65.5 347.833,65.5 346.5,65.5 Z"/></g>
<g><path style="opacity:1" fill="#858585" d="M 431.5,64.5 C 431.5,64.8333 431.5,65.1667 431.5,65.5C 431.827,70.2137 431.493,74.8804 430.5,79.5C 429.081,78.9953 428.415,77.9953 428.5,76.5C 429.117,76.6107 429.617,76.944 430,77.5C 430.175,72.9805 430.675,68.6472 431.5,64.5 Z"/></g>
<g><path style="opacity:1" fill="#b9b9b9" d="M 431.5,65.5 C 431.5,65.1667 431.5,64.8333 431.5,64.5C 433.167,64.5 434.833,64.5 436.5,64.5C 436.5,73.1667 436.5,81.8333 436.5,90.5C 434.265,90.7947 432.265,90.4614 430.5,89.5C 432.167,89.5 433.833,89.5 435.5,89.5C 435.5,81.5 435.5,73.5 435.5,65.5C 434.167,65.5 432.833,65.5 431.5,65.5 Z"/></g>
<g><path style="opacity:1" fill="#0f0f0f" d="M 398.5,68.5 C 400.722,68.178 402.556,68.8446 404,70.5C 404.667,74.8333 404.667,79.1667 404,83.5C 401.667,86.1667 399.333,86.1667 397,83.5C 395.955,78.2145 396.455,73.2145 398.5,68.5 Z"/></g>
<g><path style="opacity:1" fill="#717171" d="M 328.5,64.5 C 322.833,64.5 317.167,64.5 311.5,64.5C 311.5,65.8333 311.5,67.1667 311.5,68.5C 313.5,68.5 315.5,68.5 317.5,68.5C 317.5,75.5 317.5,82.5 317.5,89.5C 319.167,89.5 320.833,89.5 322.5,89.5C 320.735,90.4614 318.735,90.7947 316.5,90.5C 316.5,83.5 316.5,76.5 316.5,69.5C 314.5,69.5 312.5,69.5 310.5,69.5C 310.5,67.5 310.5,65.5 310.5,63.5C 316.69,63.1771 322.69,63.5104 328.5,64.5 Z"/></g>
<g><path style="opacity:1" fill="#989898" d="M 362.5,69.5 C 363.491,75.979 363.824,82.6457 363.5,89.5C 364.833,89.5 366.167,89.5 367.5,89.5C 367.176,82.6457 367.509,75.979 368.5,69.5C 368.5,76.5 368.5,83.5 368.5,90.5C 366.5,90.5 364.5,90.5 362.5,90.5C 362.5,83.5 362.5,76.5 362.5,69.5 Z"/></g>
<g><path style="opacity:1" fill="#9e9e9e" d="M 296.5,74.5 C 299.167,74.5 301.833,74.5 304.5,74.5C 304.5,76.1667 304.5,77.8333 304.5,79.5C 301.833,79.5 299.167,79.5 296.5,79.5C 298.607,78.5318 300.941,78.1984 303.5,78.5C 303.5,77.5 303.5,76.5 303.5,75.5C 300.941,75.8016 298.607,75.4682 296.5,74.5 Z"/></g>
<g><path style="opacity:1" fill="#a1a1a1" d="M 269.5,88.5 C 273.5,89.8333 277.5,89.8333 281.5,88.5C 281.389,89.1174 281.056,89.6174 280.5,90C 277.167,90.6667 273.833,90.6667 270.5,90C 269.944,89.6174 269.611,89.1174 269.5,88.5 Z"/></g>
<g><path style="opacity:1" fill="#6ec2a7" d="M 123.5,90.5 C 125.989,90.2978 128.323,90.7978 130.5,92C 139.729,98.1086 149.063,103.942 158.5,109.5C 152.782,108.369 146.782,107.369 140.5,106.5C 139.702,106.957 139.369,107.624 139.5,108.5C 133.824,102.823 128.491,96.823 123.5,90.5 Z"/></g>
<g><path style="opacity:1" fill="#258bb4" d="M 123.5,90.5 C 128.491,96.823 133.824,102.823 139.5,108.5C 139.833,109.167 140.167,109.833 140.5,110.5C 140.631,111.239 140.464,111.906 140,112.5C 139.5,111.333 138.667,110.5 137.5,110C 134.833,109.833 132.167,109.667 129.5,109.5C 126.127,109.922 122.96,109.922 120,109.5C 119.722,110.416 119.222,111.082 118.5,111.5C 118.334,105.491 118.501,99.4908 119,93.5C 120.129,91.8588 121.629,90.8588 123.5,90.5 Z"/></g>
<g><path style="opacity:1" fill="#8acba5" d="M 158.5,109.5 C 164.337,112.918 170.004,116.584 175.5,120.5C 167.288,118.55 158.955,118.05 150.5,119C 151.252,119.671 151.586,120.504 151.5,121.5C 150.167,120.5 148.833,119.5 147.5,118.5C 145.906,115.236 143.573,112.569 140.5,110.5C 140.167,109.833 139.833,109.167 139.5,108.5C 139.369,107.624 139.702,106.957 140.5,106.5C 146.782,107.369 152.782,108.369 158.5,109.5 Z"/></g>
<g><path style="opacity:1" fill="#2c98b9" d="M 140.5,110.5 C 143.573,112.569 145.906,115.236 147.5,118.5C 146.596,119.209 146.263,120.209 146.5,121.5C 137.114,121.78 127.78,121.447 118.5,120.5C 118.5,117.5 118.5,114.5 118.5,111.5C 119.222,111.082 119.722,110.416 120,109.5C 122.96,109.922 126.127,109.922 129.5,109.5C 132.167,109.667 134.833,109.833 137.5,110C 138.667,110.5 139.5,111.333 140,112.5C 140.464,111.906 140.631,111.239 140.5,110.5 Z"/></g>
<g><path style="opacity:1" fill="#f5f5f5" d="M 480.5,187.5 C 482.167,188.167 483.833,188.833 485.5,189.5C 484.833,189.5 484.5,189.833 484.5,190.5C 479.056,191.108 474.056,190.442 469.5,188.5C 469.5,188.167 469.5,187.833 469.5,187.5C 470.497,166.673 470.831,145.673 470.5,124.5C 468.901,124.768 467.568,124.434 466.5,123.5C 466.918,122.778 467.584,122.278 468.5,122C 473.167,121.333 477.833,121.333 482.5,122C 481.667,122.833 480.833,123.667 480,124.5C 479.171,145.671 479.337,166.671 480.5,187.5 Z"/></g>
<g><path style="opacity:1" fill="#757575" d="M 466.5,123.5 C 467.568,124.434 468.901,124.768 470.5,124.5C 470.831,145.673 470.497,166.673 469.5,187.5C 469.5,166.833 469.5,146.167 469.5,125.5C 467.712,125.785 466.045,125.452 464.5,124.5C 464.957,123.702 465.624,123.369 466.5,123.5 Z"/></g>
<g><path style="opacity:1" fill="#2fa4bc" d="M 147.5,118.5 C 148.833,119.5 150.167,120.5 151.5,121.5C 154.57,124.564 157.237,127.897 159.5,131.5C 159.631,132.239 159.464,132.906 159,133.5C 145.531,132.807 132.031,132.14 118.5,131.5C 118.5,127.833 118.5,124.167 118.5,120.5C 127.78,121.447 137.114,121.78 146.5,121.5C 146.263,120.209 146.596,119.209 147.5,118.5 Z"/></g>
<g><path style="opacity:1" fill="#ededed" d="M 302.5,128.5 C 298.689,127.355 294.689,127.188 290.5,128C 289.944,128.383 289.611,128.883 289.5,129.5C 283.999,130.998 279.999,134.331 277.5,139.5C 276.094,139.973 275.427,140.973 275.5,142.5C 273.221,150.37 272.888,158.37 274.5,166.5C 274.755,168.967 275.755,170.967 277.5,172.5C 280.113,178.113 284.113,182.446 289.5,185.5C 291.033,187.245 293.033,188.245 295.5,188.5C 296.5,188.5 297.5,188.5 298.5,188.5C 302.646,189.647 306.98,189.814 311.5,189C 312.056,188.617 312.389,188.117 312.5,187.5C 313.487,182.695 313.821,177.695 313.5,172.5C 310.15,172.665 306.817,172.498 303.5,172C 304.056,171.617 304.389,171.117 304.5,170.5C 310.963,169.23 317.296,169.23 323.5,170.5C 323.5,170.833 323.5,171.167 323.5,171.5C 322.833,177.167 322.167,182.833 321.5,188.5C 318.478,188.804 315.478,189.304 312.5,190C 311.944,190.383 311.611,190.883 311.5,191.5C 301.369,193.16 291.369,192.827 281.5,190.5C 281.027,189.094 280.027,188.427 278.5,188.5C 274.88,186.715 272.047,184.048 270,180.5C 260.762,165.03 261.429,150.03 272,135.5C 274.086,132.906 276.586,130.906 279.5,129.5C 283.149,128.733 286.482,127.4 289.5,125.5C 300.83,123.162 311.496,124.995 321.5,131C 322.451,131.718 322.617,132.551 322,133.5C 319.046,135.622 316.38,137.955 314,140.5C 313.5,140.167 313,139.833 312.5,139.5C 313.428,138.232 313.595,136.899 313,135.5C 309.659,132.759 306.159,130.426 302.5,128.5 Z"/></g>
<g><path style="opacity:1" fill="#a4d4a3" d="M 175.5,120.5 C 181.206,123.347 186.539,126.68 191.5,130.5C 181.917,130.182 172.417,130.515 163,131.5C 161.608,129.158 160.775,129.158 160.5,131.5C 160.167,131.5 159.833,131.5 159.5,131.5C 157.237,127.897 154.57,124.564 151.5,121.5C 151.586,120.504 151.252,119.671 150.5,119C 158.955,118.05 167.288,118.55 175.5,120.5 Z"/></g>
<g><path style="opacity:1" fill="#a5a5a5" d="M 289.5,125.5 C 286.482,127.4 283.149,128.733 279.5,129.5C 282.309,127.103 285.642,125.77 289.5,125.5 Z"/></g>
<g><path style="opacity:1" fill="#b7b7b7" d="M 302.5,128.5 C 298.102,128.294 293.768,128.627 289.5,129.5C 289.611,128.883 289.944,128.383 290.5,128C 294.689,127.188 298.689,127.355 302.5,128.5 Z"/></g>
<g><path style="opacity:1" fill="#a7a7a7" d="M 588.5,127.5 C 590.5,127.5 592.5,127.5 594.5,127.5C 594.5,148.833 594.5,170.167 594.5,191.5C 592.5,191.5 590.5,191.5 588.5,191.5C 588.5,170.167 588.5,148.833 588.5,127.5 Z"/></g>
<g><path style="opacity:1" fill="#fdfdfd" d="M 589.5,128.5 C 590.833,128.5 592.167,128.5 593.5,128.5C 593.5,149.167 593.5,169.833 593.5,190.5C 592.167,190.5 590.833,190.5 589.5,190.5C 589.5,169.833 589.5,149.167 589.5,128.5 Z"/></g>
<g><path style="opacity:1" fill="#b7daa1" d="M 191.5,130.5 C 195.167,132.5 198.833,134.5 202.5,136.5C 202.973,137.906 203.973,138.573 205.5,138.5C 206.167,138.5 206.5,138.833 206.5,139.5C 206.167,140.167 205.833,140.833 205.5,141.5C 204.25,141.423 203.417,140.756 203,139.5C 192.91,140.321 182.744,140.821 172.5,141C 171.748,141.671 171.414,142.504 171.5,143.5C 169.194,140.527 166.527,137.86 163.5,135.5C 162.5,134.167 161.5,132.833 160.5,131.5C 160.775,129.158 161.608,129.158 163,131.5C 172.417,130.515 181.917,130.182 191.5,130.5 Z"/></g>
<g><path style="opacity:1" fill="#32b0bf" d="M 118.5,131.5 C 132.031,132.14 145.531,132.807 159,133.5C 159.464,132.906 159.631,132.239 159.5,131.5C 159.833,131.5 160.167,131.5 160.5,131.5C 161.5,132.833 162.5,134.167 163.5,135.5C 164.171,136.847 164.171,138.014 163.5,139C 165.167,140 166.833,141 168.5,142C 151.484,142.214 134.817,142.714 118.5,143.5C 118.5,139.5 118.5,135.5 118.5,131.5 Z"/></g>
<g><path style="opacity:1" fill="#536247" d="M 202.5,136.5 C 204.027,136.427 205.027,137.094 205.5,138.5C 203.973,138.573 202.973,137.906 202.5,136.5 Z"/></g>
<g><path style="opacity:1" fill="#cae19e" d="M 205.5,141.5 C 201.435,145.559 197.768,149.893 194.5,154.5C 191.806,156.527 189.473,158.861 187.5,161.5C 184.833,158.167 181.833,155.167 178.5,152.5C 176.573,149.233 174.239,146.233 171.5,143.5C 171.414,142.504 171.748,141.671 172.5,141C 182.744,140.821 192.91,140.321 203,139.5C 203.417,140.756 204.25,141.423 205.5,141.5 Z"/></g>
<g><path style="opacity:1" fill="#747474" d="M 277.5,139.5 C 277.573,141.027 276.906,142.027 275.5,142.5C 275.427,140.973 276.094,139.973 277.5,139.5 Z"/></g>
<g><path style="opacity:1" fill="#7d7d7d" d="M 356.5,145.5 C 351.77,145.283 347.103,145.617 342.5,146.5C 342.611,145.883 342.944,145.383 343.5,145C 348.02,144.186 352.354,144.353 356.5,145.5 Z"/></g>
<g><path style="opacity:1" fill="#9a9a9a" d="M 573.5,146.5 C 567.833,145.167 562.167,145.167 556.5,146.5C 556.611,145.883 556.944,145.383 557.5,145C 562.5,144.333 567.5,144.333 572.5,145C 573.056,145.383 573.389,145.883 573.5,146.5 Z"/></g>
<g><path style="opacity:1" fill="#848484" d="M 627.5,145.5 C 621.773,145.26 616.106,145.593 610.5,146.5C 610.611,145.883 610.944,145.383 611.5,145C 617.04,142.871 622.374,143.037 627.5,145.5 Z"/></g>
<g><path style="opacity:1" fill="#686868" d="M 646.5,145.5 C 644.219,145.077 642.552,145.744 641.5,147.5C 640.596,146.791 640.263,145.791 640.5,144.5C 642.735,144.205 644.735,144.539 646.5,145.5 Z"/></g>
<g><path style="opacity:1" fill="#2b2b2b" d="M 439.5,146.5 C 447.984,145.507 456.651,145.174 465.5,145.5C 465.715,147.179 465.048,148.179 463.5,148.5C 463.611,147.883 463.944,147.383 464.5,147C 456.173,146.5 447.84,146.334 439.5,146.5 Z"/></g>
<g><path style="opacity:1" fill="#e9e9e9" d="M 549.5,145.5 C 549.5,146.5 549.5,147.5 549.5,148.5C 550.053,150.552 551.053,150.885 552.5,149.5C 553.262,147.738 554.596,146.738 556.5,146.5C 562.167,145.167 567.833,145.167 573.5,146.5C 581.708,151.81 585.041,159.476 583.5,169.5C 583.618,186.554 575.284,194.387 558.5,193C 555.734,191.629 553.401,189.796 551.5,187.5C 551.44,186.957 551.107,186.624 550.5,186.5C 549.503,194.138 549.169,201.804 549.5,209.5C 548.167,209.5 546.833,209.5 545.5,209.5C 545.5,188.167 545.5,166.833 545.5,145.5C 546.833,145.5 548.167,145.5 549.5,145.5 Z"/></g>
<g><path style="opacity:1" fill="#ececec" d="M 627.5,145.5 C 632.111,146.778 635.111,149.778 636.5,154.5C 636.225,167.204 636.558,179.87 637.5,192.5C 635.833,192.5 634.167,192.5 632.5,192.5C 632.435,190.304 631.768,188.304 630.5,186.5C 629.893,186.624 629.56,186.957 629.5,187.5C 627.482,188.859 625.482,190.193 623.5,191.5C 618.562,192.392 613.562,192.726 608.5,192.5C 601.832,187.887 599.665,181.554 602,173.5C 604.106,170.882 606.606,168.882 609.5,167.5C 616.965,166.899 624.298,166.232 631.5,165.5C 631.813,161.958 631.479,158.625 630.5,155.5C 629.578,153.184 627.911,151.517 625.5,150.5C 624.129,149.213 622.295,148.547 620,148.5C 618.167,148.667 616.333,148.833 614.5,149C 613.944,149.383 613.611,149.883 613.5,150.5C 611.833,151.5 610.5,152.833 609.5,154.5C 608.596,155.209 608.263,156.209 608.5,157.5C 606.833,157.5 605.167,157.5 603.5,157.5C 603.561,152.376 605.894,148.71 610.5,146.5C 616.106,145.593 621.773,145.26 627.5,145.5 Z"/></g>
<g><path style="opacity:1" fill="#a6a6a6" d="M 405.5,145.5 C 399.678,145.21 394.012,145.877 388.5,147.5C 389.6,146.442 390.934,145.608 392.5,145C 397.02,144.186 401.354,144.353 405.5,145.5 Z"/></g>
<g><path style="opacity:1" fill="#c0c0c0" d="M 439.5,146.5 C 447.84,146.334 456.173,146.5 464.5,147C 463.944,147.383 463.611,147.883 463.5,148.5C 463.167,148.5 462.833,148.5 462.5,148.5C 453.209,146.976 443.876,147.309 434.5,149.5C 435.768,147.953 437.435,146.953 439.5,146.5 Z"/></g>
<g><path style="opacity:1" fill="#e7e7e7" d="M 646.5,145.5 C 651.728,156.497 656.395,167.831 660.5,179.5C 660.238,180.978 660.571,182.311 661.5,183.5C 662.107,183.376 662.44,183.043 662.5,182.5C 666.515,170.476 670.848,158.476 675.5,146.5C 677.833,145.167 680.167,145.167 682.5,146.5C 681.873,147.417 681.539,148.417 681.5,149.5C 679.416,152.053 678.083,155.053 677.5,158.5C 671.788,174.347 665.622,190.013 659,205.5C 657.223,207.79 655.056,209.457 652.5,210.5C 649.833,210.5 647.167,210.5 644.5,210.5C 644.5,209.167 644.5,207.833 644.5,206.5C 646.735,206.795 648.735,206.461 650.5,205.5C 653.977,202.56 656.477,198.893 658,194.5C 658.722,191.739 658.555,189.073 657.5,186.5C 657.245,184.033 656.245,182.033 654.5,180.5C 652.929,174.956 650.929,169.623 648.5,164.5C 648.573,162.973 647.906,161.973 646.5,161.5C 645.985,159.106 645.319,156.772 644.5,154.5C 644.573,152.973 643.906,151.973 642.5,151.5C 642.167,150.167 641.833,148.833 641.5,147.5C 642.552,145.744 644.219,145.077 646.5,145.5 Z"/></g>
<g><path style="opacity:1" fill="#ebebeb" d="M 356.5,145.5 C 362.912,146.908 367.579,150.575 370.5,156.5C 372.155,162.346 372.822,168.346 372.5,174.5C 367.775,189.037 357.775,195.203 342.5,193C 328.079,183.828 324.246,171.328 331,155.5C 334.155,151.497 337.988,148.497 342.5,146.5C 347.103,145.617 351.77,145.283 356.5,145.5 Z"/></g>
<g><path style="opacity:1" fill="#a0a0a0" d="M 345.5,148.5 C 348.74,147.258 352.074,147.424 355.5,149C 356.823,149.816 357.489,150.983 357.5,152.5C 354.169,149.39 350.169,148.056 345.5,148.5 Z"/></g>
<g><path style="opacity:1" fill="#efefef" d="M 405.5,145.5 C 413.404,147.615 418.404,152.615 420.5,160.5C 420.653,166.869 420.32,173.203 419.5,179.5C 417.752,182.431 415.752,185.264 413.5,188C 410.589,189.761 407.589,191.261 404.5,192.5C 399.438,192.726 394.438,192.392 389.5,191.5C 385.638,190.476 382.805,188.143 381,184.5C 375.44,174.663 375.107,164.663 380,154.5C 382.436,151.553 385.269,149.22 388.5,147.5C 394.012,145.877 399.678,145.21 405.5,145.5 Z"/></g>
<g><path style="opacity:1" fill="#9c9c9c" d="M 400.5,148.5 C 397.763,148.401 395.096,148.735 392.5,149.5C 393.492,147.974 394.992,147.307 397,147.5C 398.385,147.514 399.551,147.848 400.5,148.5 Z"/></g>
<g><path style="opacity:1" fill="#ececec" d="M 462.5,148.5 C 460.704,149.794 458.704,150.794 456.5,151.5C 457.861,153.028 459.028,154.695 460,156.5C 460.667,160.833 460.667,165.167 460,169.5C 457.11,173.707 454.276,177.873 451.5,182C 454.532,187.044 458.366,191.544 463,195.5C 466.1,206.162 462.933,214.162 453.5,219.5C 445.587,221.672 437.587,222.006 429.5,220.5C 425.466,218.633 422.633,215.633 421,211.5C 419.764,203.724 422.598,197.891 429.5,194C 434.284,191.968 439.284,191.134 444.5,191.5C 444.737,190.209 444.404,189.209 443.5,188.5C 443.5,185.833 443.5,183.167 443.5,180.5C 441.167,180.5 438.833,180.5 436.5,180.5C 429.211,178.026 425.544,172.859 425.5,165C 425.539,158.087 428.539,152.92 434.5,149.5C 443.876,147.309 453.209,146.976 462.5,148.5 Z"/></g>
<g><path style="opacity:1" fill="#ebebeb" d="M 521.5,158.5 C 519.62,158.229 518.287,158.896 517.5,160.5C 513.649,161.928 509.983,163.595 506.5,165.5C 504.62,165.229 503.287,165.896 502.5,167.5C 501.5,167.5 500.5,167.5 499.5,167.5C 497.821,167.715 496.821,167.048 496.5,165.5C 501.599,163.452 506.599,161.118 511.5,158.5C 513.214,153.651 511.547,150.651 506.5,149.5C 503.282,147.816 500.615,148.483 498.5,151.5C 497.026,152.436 496.026,153.77 495.5,155.5C 494.117,161.244 494.45,166.91 496.5,172.5C 499.5,184.011 506.833,188.845 518.5,187C 519.665,185.916 520.998,185.083 522.5,184.5C 523.521,185.002 523.688,185.668 523,186.5C 520.872,188.808 518.372,190.474 515.5,191.5C 510.562,192.392 505.562,192.726 500.5,192.5C 494.453,190.084 490.453,185.751 488.5,179.5C 487.724,172.863 487.391,166.196 487.5,159.5C 492.013,148.239 500.346,143.739 512.5,146C 516.827,147.573 519.993,150.407 522,154.5C 522.765,156.066 522.598,157.399 521.5,158.5 Z"/></g>
<g><path style="opacity:1" fill="#959595" d="M 549.5,145.5 C 548.167,145.5 546.833,145.5 545.5,145.5C 545.5,166.833 545.5,188.167 545.5,209.5C 546.833,209.5 548.167,209.5 549.5,209.5C 549.169,201.804 549.503,194.138 550.5,186.5C 551.107,186.624 551.44,186.957 551.5,187.5C 550.508,194.982 550.175,202.648 550.5,210.5C 548.5,210.5 546.5,210.5 544.5,210.5C 544.5,188.5 544.5,166.5 544.5,144.5C 546.415,144.216 548.081,144.549 549.5,145.5 Z"/></g>
<g><path style="opacity:1" fill="#afafaf" d="M 625.5,150.5 C 621.5,149.167 617.5,149.167 613.5,150.5C 613.611,149.883 613.944,149.383 614.5,149C 616.333,148.833 618.167,148.667 620,148.5C 622.295,148.547 624.129,149.213 625.5,150.5 Z"/></g>
<g><path style="opacity:1" fill="#f6a877" d="M 206.5,139.5 C 212.536,143.181 218.536,146.848 224.5,150.5C 223.203,152.142 220.37,153.475 216,154.5C 215.586,154.043 215.086,153.709 214.5,153.5C 207.687,155.969 200.687,157.136 193.5,157C 194.252,156.329 194.586,155.496 194.5,154.5C 197.768,149.893 201.435,145.559 205.5,141.5C 205.833,140.833 206.167,140.167 206.5,139.5 Z"/></g>
<g><path style="opacity:1" fill="#676767" d="M 345.5,148.5 C 345.027,149.906 344.027,150.573 342.5,150.5C 342.973,149.094 343.973,148.427 345.5,148.5 Z"/></g>
<g><path style="opacity:1" fill="#070707" d="M 345.5,148.5 C 350.169,148.056 354.169,149.39 357.5,152.5C 363.129,160.928 364.963,170.261 363,180.5C 361.423,184.351 358.923,187.351 355.5,189.5C 352.763,189.599 350.096,189.265 347.5,188.5C 341.999,183.836 338.833,177.836 338,170.5C 337.333,165.5 337.333,160.5 338,155.5C 338.996,153.34 340.496,151.673 342.5,150.5C 344.027,150.573 345.027,149.906 345.5,148.5 Z"/></g>
<g><path style="opacity:1" fill="#060606" d="M 400.5,148.5 C 400.842,149.338 401.508,149.672 402.5,149.5C 403.167,150.833 404.167,151.833 405.5,152.5C 407.588,154.336 408.921,156.669 409.5,159.5C 411.206,166.033 411.872,172.7 411.5,179.5C 410.576,184.755 407.576,188.088 402.5,189.5C 400.097,189.552 397.764,189.219 395.5,188.5C 390.53,183.565 387.364,177.565 386,170.5C 384.939,164.276 385.606,158.276 388,152.5C 389.271,151.117 390.771,150.117 392.5,149.5C 395.096,148.735 397.763,148.401 400.5,148.5 Z"/></g>
<g><path style="opacity:1" fill="#8e8e8e" d="M 402.5,149.5 C 404.5,149.5 405.5,150.5 405.5,152.5C 404.167,151.833 403.167,150.833 402.5,149.5 Z"/></g>
<g><path style="opacity:1" fill="#606060" d="M 549.5,148.5 C 550.391,149.11 551.391,149.443 552.5,149.5C 551.053,150.885 550.053,150.552 549.5,148.5 Z"/></g>
<g><path style="opacity:1" fill="#41bbc1" d="M 163.5,135.5 C 166.527,137.86 169.194,140.527 171.5,143.5C 174.239,146.233 176.573,149.233 178.5,152.5C 179.087,153.767 179.087,154.767 178.5,155.5C 158.47,155.499 138.47,155.499 118.5,155.5C 118.5,151.5 118.5,147.5 118.5,143.5C 134.817,142.714 151.484,142.214 168.5,142C 166.833,141 165.167,140 163.5,139C 164.171,138.014 164.171,136.847 163.5,135.5 Z"/></g>
<g><path style="opacity:1" fill="#555555" d="M 506.5,149.5 C 503.549,149.287 500.882,149.954 498.5,151.5C 500.615,148.483 503.282,147.816 506.5,149.5 Z"/></g>
<g><path style="opacity:1" fill="#090909" d="M 506.5,149.5 C 511.547,150.651 513.214,153.651 511.5,158.5C 506.599,161.118 501.599,163.452 496.5,165.5C 495.521,162.375 495.187,159.042 495.5,155.5C 496.026,153.77 497.026,152.436 498.5,151.5C 500.882,149.954 503.549,149.287 506.5,149.5 Z"/></g>
<g><path style="opacity:1" fill="#070707" d="M 574.5,155.5 C 574.427,157.027 575.094,158.027 576.5,158.5C 578.178,166.63 577.678,174.63 575,182.5C 566.72,190.608 558.72,190.274 551,181.5C 550.058,172.398 550.391,163.398 552,154.5C 557.841,149.04 564.341,148.207 571.5,152C 572.71,153.039 573.71,154.206 574.5,155.5 Z"/></g>
<g><path style="opacity:1" fill="#0d0d0d" d="M 437.5,150.5 C 442.855,149.345 447.022,151.012 450,155.5C 452.227,161.328 452.893,167.328 452,173.5C 446.511,179.103 441.511,178.769 437,172.5C 435.738,168.278 434.572,164.111 433.5,160C 433.339,156.16 434.672,152.994 437.5,150.5 Z"/></g>
<g><path style="opacity:1" fill="#868686" d="M 681.5,149.5 C 680.917,152.947 679.584,155.947 677.5,158.5C 678.083,155.053 679.416,152.053 681.5,149.5 Z"/></g>
<g><path style="opacity:1" fill="#6e6e6e" d="M 642.5,151.5 C 643.906,151.973 644.573,152.973 644.5,154.5C 643.094,154.027 642.427,153.027 642.5,151.5 Z"/></g>
<g><path style="opacity:1" fill="#fab577" d="M 224.5,150.5 C 227.047,151.934 229.381,153.6 231.5,155.5C 230.226,156.189 230.226,157.023 231.5,158C 219.463,160.308 207.463,162.808 195.5,165.5C 193.971,165.471 192.804,164.804 192,163.5C 191.536,164.094 191.369,164.761 191.5,165.5C 190.167,164.5 188.833,163.5 187.5,162.5C 187.5,162.167 187.5,161.833 187.5,161.5C 189.473,158.861 191.806,156.527 194.5,154.5C 194.586,155.496 194.252,156.329 193.5,157C 200.687,157.136 207.687,155.969 214.5,153.5C 215.086,153.709 215.586,154.043 216,154.5C 220.37,153.475 223.203,152.142 224.5,150.5 Z"/></g>
<g><path style="opacity:1" fill="#3a3a3a" d="M 636.5,154.5 C 637.205,166.352 637.872,178.352 638.5,190.5C 638.457,191.416 638.124,192.083 637.5,192.5C 636.558,179.87 636.225,167.204 636.5,154.5 Z"/></g>
<g><path style="opacity:1" fill="#f9be75" d="M 231.5,155.5 C 239.4,158.017 240.4,162.017 234.5,167.5C 234.631,166.624 234.298,165.957 233.5,165.5C 223.001,167 212.668,169 202.5,171.5C 201.37,172.622 200.703,173.956 200.5,175.5C 197.833,172.833 195.167,170.167 192.5,167.5C 192.167,166.833 191.833,166.167 191.5,165.5C 191.369,164.761 191.536,164.094 192,163.5C 192.804,164.804 193.971,165.471 195.5,165.5C 207.463,162.808 219.463,160.308 231.5,158C 230.226,157.023 230.226,156.189 231.5,155.5 Z"/></g>
<g><path style="opacity:1" fill="#5b5b5b" d="M 574.5,155.5 C 575.906,155.973 576.573,156.973 576.5,158.5C 575.094,158.027 574.427,157.027 574.5,155.5 Z"/></g>
<g><path style="opacity:1" fill="#4a4a4a" d="M 609.5,154.5 C 609.5,155.833 609.5,157.167 609.5,158.5C 607.265,158.795 605.265,158.461 603.5,157.5C 605.167,157.5 606.833,157.5 608.5,157.5C 608.263,156.209 608.596,155.209 609.5,154.5 Z"/></g>
<g><path style="opacity:1" fill="#464646" d="M 495.5,155.5 C 495.187,159.042 495.521,162.375 496.5,165.5C 496.821,167.048 497.821,167.715 499.5,167.5C 498.791,168.404 497.791,168.737 496.5,168.5C 496.5,169.833 496.5,171.167 496.5,172.5C 494.45,166.91 494.117,161.244 495.5,155.5 Z"/></g>
<g><path style="opacity:1" fill="#848484" d="M 521.5,158.5 C 520.486,159.674 519.153,160.34 517.5,160.5C 518.287,158.896 519.62,158.229 521.5,158.5 Z"/></g>
<g><path style="opacity:1" fill="#54bfc0" d="M 178.5,152.5 C 181.833,155.167 184.833,158.167 187.5,161.5C 187.5,161.833 187.5,162.167 187.5,162.5C 186.197,164.142 184.864,165.809 183.5,167.5C 182.5,168.167 181.5,168.833 180.5,169.5C 161.195,167.512 141.528,166.846 121.5,167.5C 121.657,168.873 121.49,170.207 121,171.5C 120.667,168.167 120.333,164.833 120,161.5C 119.722,162.416 119.222,163.082 118.5,163.5C 118.5,160.833 118.5,158.167 118.5,155.5C 138.47,155.499 158.47,155.499 178.5,155.5C 179.087,154.767 179.087,153.767 178.5,152.5 Z"/></g>
<g><path style="opacity:1" fill="#6a6a6a" d="M 646.5,161.5 C 647.906,161.973 648.573,162.973 648.5,164.5C 647.094,164.027 646.427,163.027 646.5,161.5 Z"/></g>
<g><path style="opacity:1" fill="#474747" d="M 630.5,155.5 C 631.479,158.625 631.813,161.958 631.5,165.5C 625.833,165.5 620.167,165.5 614.5,165.5C 619.64,164.512 624.974,164.179 630.5,164.5C 630.5,161.5 630.5,158.5 630.5,155.5 Z"/></g>
<g><path style="opacity:1" fill="#a8a8a8" d="M 614.5,165.5 C 620.167,165.5 625.833,165.5 631.5,165.5C 624.298,166.232 616.965,166.899 609.5,167.5C 610.635,165.787 612.302,165.12 614.5,165.5 Z"/></g>
<g><path style="opacity:1" fill="#929292" d="M 370.5,156.5 C 371.793,157.842 372.626,159.509 373,161.5C 373.814,166.02 373.647,170.354 372.5,174.5C 372.822,168.346 372.155,162.346 370.5,156.5 Z"/></g>
<g><path style="opacity:1" fill="#616161" d="M 506.5,165.5 C 505.486,166.674 504.153,167.34 502.5,167.5C 503.287,165.896 504.62,165.229 506.5,165.5 Z"/></g>
<g><path style="opacity:1" fill="#ce455e" d="M 187.5,162.5 C 188.833,163.5 190.167,164.5 191.5,165.5C 191.833,166.167 192.167,166.833 192.5,167.5C 192.378,174.943 192.378,182.61 192.5,190.5C 193.833,190.5 195.167,190.5 196.5,190.5C 193.124,193.194 189.457,195.527 185.5,197.5C 183.526,187.889 182.859,177.889 183.5,167.5C 184.864,165.809 186.197,164.142 187.5,162.5 Z"/></g>
<g><path style="opacity:1" fill="#2e2e2e" d="M 307.5,168.5 C 313.31,167.51 319.31,167.177 325.5,167.5C 325.843,169.483 325.176,170.817 323.5,171.5C 323.5,171.167 323.5,170.833 323.5,170.5C 324.043,170.44 324.376,170.107 324.5,169.5C 318.872,168.505 313.206,168.171 307.5,168.5 Z"/></g>
<g><path style="opacity:1" fill="#a7a7a7" d="M 307.5,168.5 C 313.206,168.171 318.872,168.505 324.5,169.5C 324.376,170.107 324.043,170.44 323.5,170.5C 317.296,169.23 310.963,169.23 304.5,170.5C 304.973,169.094 305.973,168.427 307.5,168.5 Z"/></g>
<g><path style="opacity:1" fill="#9a9a9a" d="M 420.5,160.5 C 421.164,162.978 421.497,165.645 421.5,168.5C 421.706,172.469 421.039,176.135 419.5,179.5C 420.32,173.203 420.653,166.869 420.5,160.5 Z"/></g>
<g><path style="opacity:1" fill="#525252" d="M 616.5,170.5 C 621.305,169.513 626.305,169.179 631.5,169.5C 631.813,173.042 631.479,176.375 630.5,179.5C 630.5,176.5 630.5,173.5 630.5,170.5C 625.833,170.5 621.167,170.5 616.5,170.5 Z"/></g>
<g><path style="opacity:1" fill="#090909" d="M 616.5,170.5 C 621.167,170.5 625.833,170.5 630.5,170.5C 630.5,173.5 630.5,176.5 630.5,179.5C 628.112,183.866 624.446,186.533 619.5,187.5C 616.14,187.384 612.807,187.051 609.5,186.5C 605.169,181.332 605.502,176.499 610.5,172C 612.345,170.872 614.345,170.372 616.5,170.5 Z"/></g>
<g><path style="opacity:1" fill="#f9ca73" d="M 234.5,167.5 C 225.637,173.097 216.637,178.43 207.5,183.5C 205.177,180.874 202.843,178.207 200.5,175.5C 200.703,173.956 201.37,172.622 202.5,171.5C 212.668,169 223.001,167 233.5,165.5C 234.298,165.957 234.631,166.624 234.5,167.5 Z"/></g>
<g><path style="opacity:1" fill="#7d7d7d" d="M 274.5,166.5 C 276.245,168.033 277.245,170.033 277.5,172.5C 275.755,170.967 274.755,168.967 274.5,166.5 Z"/></g>
<g><path style="opacity:1" fill="#c34767" d="M 183.5,167.5 C 182.859,177.889 183.526,187.889 185.5,197.5C 183.508,198.83 181.508,200.164 179.5,201.5C 178.5,201.5 177.5,201.5 176.5,201.5C 176.402,192.32 176.402,183.32 176.5,174.5C 177.833,172.833 179.167,171.167 180.5,169.5C 181.5,168.833 182.5,168.167 183.5,167.5 Z"/></g>
<g><path style="opacity:1" fill="#de4650" d="M 192.5,167.5 C 195.167,170.167 197.833,172.833 200.5,175.5C 202.843,178.207 205.177,180.874 207.5,183.5C 204.124,186.194 200.457,188.527 196.5,190.5C 195.167,190.5 193.833,190.5 192.5,190.5C 192.378,182.61 192.378,174.943 192.5,167.5 Z"/></g>
<g><path style="opacity:1" fill="#606060" d="M 304.5,170.5 C 304.389,171.117 304.056,171.617 303.5,172C 306.817,172.498 310.15,172.665 313.5,172.5C 313.821,177.695 313.487,182.695 312.5,187.5C 311.833,187.5 311.167,187.5 310.5,187.5C 312.348,183.146 313.015,178.48 312.5,173.5C 308.774,173.823 305.107,173.489 301.5,172.5C 302.005,171.081 303.005,170.415 304.5,170.5 Z"/></g>
<g><path style="opacity:1" fill="#65c4c0" d="M 180.5,169.5 C 179.167,171.167 177.833,172.833 176.5,174.5C 173.862,177.474 171.195,180.474 168.5,183.5C 167.5,183.833 166.833,184.5 166.5,185.5C 151.303,184.189 136.137,184.189 121,185.5C 120.667,184.167 120.333,182.833 120,181.5C 119.617,182.056 119.117,182.389 118.5,182.5C 118.5,176.167 118.5,169.833 118.5,163.5C 119.222,163.082 119.722,162.416 120,161.5C 120.333,164.833 120.667,168.167 121,171.5C 121.49,170.207 121.657,168.873 121.5,167.5C 141.528,166.846 161.195,167.512 180.5,169.5 Z"/></g>
<g><path style="opacity:1" fill="#b4b4b4" d="M 487.5,159.5 C 487.391,166.196 487.724,172.863 488.5,179.5C 487.003,175.777 486.337,171.777 486.5,167.5C 486.503,164.645 486.836,161.978 487.5,159.5 Z"/></g>
<g><path style="opacity:1" fill="#868686" d="M 409.5,159.5 C 411.067,160.681 411.901,162.347 412,164.5C 412.816,169.684 412.65,174.684 411.5,179.5C 411.872,172.7 411.206,166.033 409.5,159.5 Z"/></g>
<g><path style="opacity:1" fill="#b94771" d="M 176.5,174.5 C 176.402,183.32 176.402,192.32 176.5,201.5C 177.5,201.5 178.5,201.5 179.5,201.5C 176.451,203.863 173.118,205.863 169.5,207.5C 167.822,201.332 166.822,194.832 166.5,188C 167.582,186.67 168.249,185.17 168.5,183.5C 171.195,180.474 173.862,177.474 176.5,174.5 Z"/></g>
<g><path style="opacity:1" fill="#747474" d="M 660.5,179.5 C 661.167,180.5 661.833,181.5 662.5,182.5C 662.44,183.043 662.107,183.376 661.5,183.5C 660.571,182.311 660.238,180.978 660.5,179.5 Z"/></g>
<g><path style="opacity:1" fill="#878787" d="M 436.5,180.5 C 438.833,180.5 441.167,180.5 443.5,180.5C 443.5,183.167 443.5,185.833 443.5,188.5C 442.532,186.393 442.198,184.059 442.5,181.5C 440.265,181.795 438.265,181.461 436.5,180.5 Z"/></g>
<g><path style="opacity:1" fill="#7b7b7b" d="M 654.5,180.5 C 656.245,182.033 657.245,184.033 657.5,186.5C 655.755,184.967 654.755,182.967 654.5,180.5 Z"/></g>
<g><path style="opacity:1" fill="#6c6c6c" d="M 289.5,185.5 C 291.967,185.755 293.967,186.755 295.5,188.5C 293.033,188.245 291.033,187.245 289.5,185.5 Z"/></g>
<g><path style="opacity:1" fill="#777777" d="M 480.5,187.5 C 482.604,187.201 484.604,187.534 486.5,188.5C 486.376,189.107 486.043,189.44 485.5,189.5C 483.833,188.833 482.167,188.167 480.5,187.5 Z"/></g>
<g><path style="opacity:1" fill="#595959" d="M 609.5,186.5 C 612.807,187.051 616.14,187.384 619.5,187.5C 618.378,188.156 617.045,188.489 615.5,188.5C 613.117,188.639 611.117,187.972 609.5,186.5 Z"/></g>
<g><path style="opacity:1" fill="#383838" d="M 629.5,187.5 C 629.56,186.957 629.893,186.624 630.5,186.5C 631.768,188.304 632.435,190.304 632.5,192.5C 634.167,192.5 635.833,192.5 637.5,192.5C 635.735,193.461 633.735,193.795 631.5,193.5C 631.405,191.214 630.738,189.214 629.5,187.5 Z"/></g>
<g><path style="opacity:1" fill="#af497b" d="M 168.5,183.5 C 168.249,185.17 167.582,186.67 166.5,188C 166.822,194.832 167.822,201.332 169.5,207.5C 167.465,209.195 165.132,210.528 162.5,211.5C 162.756,204.776 162.423,198.109 161.5,191.5C 163.167,189.5 164.833,187.5 166.5,185.5C 166.833,184.5 167.5,183.833 168.5,183.5 Z"/></g>
<g><path style="opacity:1" fill="#bababa" d="M 310.5,187.5 C 311.167,187.5 311.833,187.5 312.5,187.5C 312.389,188.117 312.056,188.617 311.5,189C 306.98,189.814 302.646,189.647 298.5,188.5C 302.566,188.693 306.566,188.36 310.5,187.5 Z"/></g>
<g><path style="opacity:1" fill="#77c8be" d="M 166.5,185.5 C 164.833,187.5 163.167,189.5 161.5,191.5C 159.833,192.833 158.167,194.167 156.5,195.5C 144.765,194.171 132.931,194.171 121,195.5C 120.844,192.809 120.011,190.476 118.5,188.5C 118.5,186.5 118.5,184.5 118.5,182.5C 119.117,182.389 119.617,182.056 120,181.5C 120.333,182.833 120.667,184.167 121,185.5C 136.137,184.189 151.303,184.189 166.5,185.5 Z"/></g>
<g><path style="opacity:1" fill="#8c8c8c" d="M 278.5,188.5 C 280.027,188.427 281.027,189.094 281.5,190.5C 279.973,190.573 278.973,189.906 278.5,188.5 Z"/></g>
<g><path style="opacity:1" fill="#909090" d="M 321.5,188.5 C 318.417,189.993 315.083,190.993 311.5,191.5C 311.611,190.883 311.944,190.383 312.5,190C 315.478,189.304 318.478,188.804 321.5,188.5 Z"/></g>
<g><path style="opacity:1" fill="#919191" d="M 347.5,188.5 C 350.096,189.265 352.763,189.599 355.5,189.5C 354.551,190.152 353.385,190.486 352,190.5C 349.992,190.693 348.492,190.026 347.5,188.5 Z"/></g>
<g><path style="opacity:1" fill="#8f8f8f" d="M 395.5,188.5 C 397.764,189.219 400.097,189.552 402.5,189.5C 401.726,190.147 400.726,190.48 399.5,190.5C 397.645,190.66 396.312,189.993 395.5,188.5 Z"/></g>
<g><path style="opacity:1" fill="#919191" d="M 469.5,188.5 C 474.056,190.442 479.056,191.108 484.5,190.5C 479.36,191.488 474.026,191.821 468.5,191.5C 468.263,190.209 468.596,189.209 469.5,188.5 Z"/></g>
<g><path style="opacity:1" fill="#707070" d="M 389.5,191.5 C 394.438,192.392 399.438,192.726 404.5,192.5C 400.019,193.648 395.352,193.815 390.5,193C 389.944,192.617 389.611,192.117 389.5,191.5 Z"/></g>
<g><path style="opacity:1" fill="#7e7e7e" d="M 515.5,191.5 C 515.389,192.117 515.056,192.617 514.5,193C 509.648,193.815 504.981,193.648 500.5,192.5C 505.562,192.726 510.562,192.392 515.5,191.5 Z"/></g>
<g><path style="opacity:1" fill="#727272" d="M 623.5,191.5 C 623.389,192.117 623.056,192.617 622.5,193C 617.648,193.815 612.981,193.648 608.5,192.5C 613.562,192.726 618.562,192.392 623.5,191.5 Z"/></g>
<g><path style="opacity:1" fill="#464646" d="M 442.5,194.5 C 440.485,195.924 438.152,196.59 435.5,196.5C 437.515,195.076 439.848,194.41 442.5,194.5 Z"/></g>
<g><path style="opacity:1" fill="#070707" d="M 442.5,194.5 C 448.317,195.1 453.15,197.767 457,202.5C 458.398,212.609 453.898,217.609 443.5,217.5C 437.55,217.975 433.217,215.642 430.5,210.5C 430.323,206.766 430.656,203.099 431.5,199.5C 432.262,197.738 433.596,196.738 435.5,196.5C 438.152,196.59 440.485,195.924 442.5,194.5 Z"/></g>
<g><path style="opacity:1" fill="#a54985" d="M 161.5,191.5 C 162.423,198.109 162.756,204.776 162.5,211.5C 160.178,213.664 157.511,215.331 154.5,216.5C 153.761,216.631 153.094,216.464 152.5,216C 153.336,210.744 153.669,205.577 153.5,200.5C 154.752,198.999 155.752,197.332 156.5,195.5C 158.167,194.167 159.833,192.833 161.5,191.5 Z"/></g>
<g><path style="opacity:1" fill="#86cdbd" d="M 118.5,188.5 C 120.011,190.476 120.844,192.809 121,195.5C 132.931,194.171 144.765,194.171 156.5,195.5C 155.752,197.332 154.752,198.999 153.5,200.5C 149.788,203.211 146.788,206.544 144.5,210.5C 137.159,217.841 130.159,225.508 123.5,233.5C 121.248,233.084 119.748,231.751 119,229.5C 118.5,215.837 118.333,202.171 118.5,188.5 Z"/></g>
<g><path style="opacity:1" fill="#434343" d="M 431.5,199.5 C 430.656,203.099 430.323,206.766 430.5,210.5C 429.102,209.223 428.436,207.557 428.5,205.5C 428.467,202.898 429.467,200.898 431.5,199.5 Z"/></g>
<g><path style="opacity:1" fill="#7c7c7c" d="M 650.5,205.5 C 648.735,206.461 646.735,206.795 644.5,206.5C 644.5,207.833 644.5,209.167 644.5,210.5C 647.167,210.5 649.833,210.5 652.5,210.5C 649.713,211.477 646.713,211.81 643.5,211.5C 643.5,209.5 643.5,207.5 643.5,205.5C 645.833,205.5 648.167,205.5 650.5,205.5 Z"/></g>
<g><path style="opacity:1" fill="#9a4b90" d="M 153.5,200.5 C 153.669,205.577 153.336,210.744 152.5,216C 153.094,216.464 153.761,216.631 154.5,216.5C 152.206,218.653 149.54,220.32 146.5,221.5C 146.082,220.778 145.416,220.278 144.5,220C 145.573,216.888 145.573,213.721 144.5,210.5C 146.788,206.544 149.788,203.211 153.5,200.5 Z"/></g>
<g><path style="opacity:1" fill="#8b4b99" d="M 144.5,210.5 C 145.573,213.721 145.573,216.888 144.5,220C 145.416,220.278 146.082,220.778 146.5,221.5C 141.223,225.147 135.89,228.814 130.5,232.5C 128.179,234.35 125.846,234.683 123.5,233.5C 130.159,225.508 137.159,217.841 144.5,210.5 Z"/></g>
<g><path style="opacity:1" fill="#8e8e8e" d="M 453.5,219.5 C 453.389,220.117 453.056,220.617 452.5,221C 445.556,222.455 438.556,222.788 431.5,222C 430.584,221.722 429.918,221.222 429.5,220.5C 437.587,222.006 445.587,221.672 453.5,219.5 Z"/></g>
<g><path style="opacity:0.004" fill="#000000" d="M 729.5,255.5 C 730.833,256.167 730.833,256.167 729.5,255.5 Z"/></g>
<g><path style="opacity:0.004" fill="#000000" d="M 71.5,256.5 C 71.631,257.239 71.4643,257.906 71,258.5C 70.3083,257.563 70.475,256.897 71.5,256.5 Z"/></g>
<g><path style="opacity:0.004" fill="#000000" d="M 72.5,259.5 C 72.631,260.239 72.4643,260.906 72,261.5C 71.3083,260.563 71.475,259.897 72.5,259.5 Z"/></g>
<g><path style="opacity:0.004" fill="#000000" d="M 727.5,260.5 C 728.833,261.167 728.833,261.167 727.5,260.5 Z"/></g>
<g><path style="opacity:0.004" fill="#000000" d="M 73.5,263.5 C 74.8333,264.167 74.8333,264.167 73.5,263.5 Z"/></g>
<g><path style="opacity:0.004" fill="#000000" d="M 725.5,263.5 C 726.833,264.167 726.833,264.167 725.5,263.5 Z"/></g>
<g><path style="opacity:0.004" fill="#000000" d="M 76.5,265.5 C 75.8333,266.167 75.8333,266.167 76.5,265.5 Z"/></g>
<g><path style="opacity:0.004" fill="#000000" d="M 722.5,267.5 C 723.833,268.167 723.833,268.167 722.5,267.5 Z"/></g>
<g><path style="opacity:0.004" fill="#000000" d="M 721.5,268.5 C 721.833,268.5 722.167,268.5 722.5,268.5C 722.315,269.17 721.981,269.17 721.5,268.5 Z"/></g>
<g><path style="opacity:0.004" fill="#000000" d="M 720.5,269.5 C 720.833,269.5 721.167,269.5 721.5,269.5C 721.315,270.17 720.981,270.17 720.5,269.5 Z"/></g>
<g><path style="opacity:0.004" fill="#000000" d="M 719.5,270.5 C 719.833,270.5 720.167,270.5 720.5,270.5C 720.315,271.17 719.981,271.17 719.5,270.5 Z"/></g>
<g><path style="opacity:0.004" fill="#000000" d="M 83.5,272.5 C 82.8333,273.167 82.8333,273.167 83.5,272.5 Z"/></g>
<g><path style="opacity:0.004" fill="#000000" d="M 716.5,272.5 C 717.833,273.167 717.833,273.167 716.5,272.5 Z"/></g>
<g><path style="opacity:0.004" fill="#000000" d="M 85.5,273.5 C 84.8333,274.167 84.8333,274.167 85.5,273.5 Z"/></g>
<g><path style="opacity:0.004" fill="#000000" d="M 714.5,274.5 C 714.5,274.167 714.5,273.833 714.5,273.5C 715.167,273.5 715.833,273.5 716.5,273.5C 716.158,274.338 715.492,274.672 714.5,274.5 Z"/></g>
<g><path style="opacity:0.004" fill="#000000" d="M 712.5,274.5 C 713.167,274.5 713.833,274.5 714.5,274.5C 713.833,275.833 713.167,275.833 712.5,274.5 Z"/></g>
<g><path style="opacity:0.004" fill="#000000" d="M 95.5,277.5 C 96.8333,278.167 96.8333,278.167 95.5,277.5 Z"/></g>
<g><path style="opacity:0.004" fill="#000000" d="M 703.5,278.5 C 703.897,277.475 704.563,277.308 705.5,278C 704.906,278.464 704.239,278.631 703.5,278.5 Z"/></g>
</svg>
